<svg width="91" height="32" viewBox="0 0 91 32" fill="none" xmlns="http://www.w3.org/2000/svg">
<path d="M10.6246 5.33333C10.6246 2.38782 13.003 0 15.9369 0C18.8708 0 21.2492 2.38781 21.2492 5.33333V26.6667C21.2492 29.6122 18.8708 32 15.9369 32C13.003 32 10.6246 29.6122 10.6246 26.6667V5.33333Z" fill="#29A6A9"/>
<path d="M10.6246 20.9778C10.6246 18.0323 13.003 15.6444 15.9369 15.6444C18.8708 15.6444 21.2492 18.0323 21.2492 20.9778V26.6667C21.2492 29.6122 18.8708 32 15.9369 32C13.003 32 10.6246 29.6122 10.6246 26.6667V20.9778Z" fill="#0B738B"/>
<path d="M26.5614 10.6667C29.4953 10.6667 31.8737 13.0545 31.8737 16C31.8737 18.9455 29.4953 21.3333 26.5614 21.3333L5.31229 21.3333C2.37839 21.3333 -1.28245e-07 18.9455 0 16C1.28245e-07 13.0545 2.37839 10.6667 5.31229 10.6667L26.5614 10.6667Z" fill="#0B738B"/>
<path d="M26.5614 10.6667C29.4953 10.6667 31.8737 13.0545 31.8737 16C31.8737 18.9455 29.4953 21.3333 26.5614 21.3333L21.2492 21.3333C15.3814 21.3333 10.6246 16.5577 10.6246 10.6667L26.5614 10.6667Z" fill="#15879B"/>
<path d="M26.5614 11.2594C29.4953 11.2594 31.8737 13.6472 31.8737 16.5927C31.8737 19.5382 29.4953 21.926 26.5614 21.926H5.31229C2.37839 21.926 -1.28245e-07 19.5382 0 16.5927C1.28245e-07 13.6472 2.37839 11.2594 5.31229 11.2594L26.5614 11.2594Z" fill="#0B738B"/>
<path d="M26.5614 11.2594C29.4953 11.2594 31.8737 13.6472 31.8737 16.5927C31.8737 19.5382 29.4953 21.926 26.5614 21.926L18.7701 21.926C14.2714 21.926 10.6246 18.2647 10.6246 13.7483V11.2594L26.5614 11.2594Z" fill="#15879B"/>
<path d="M40.2999 17.1852V1.67003H46.4876C47.6245 1.67003 48.5727 1.83923 49.3323 2.17761C50.092 2.51599 50.6629 2.98569 51.0453 3.5867C51.4276 4.18266 51.6187 4.86953 51.6187 5.64731C51.6187 6.25337 51.498 6.7862 51.2565 7.24579C51.0151 7.70034 50.6831 8.07407 50.2605 8.367C49.8429 8.65488 49.365 8.85943 48.8268 8.98064V9.13216C49.4154 9.15741 49.9662 9.32407 50.4793 9.63215C50.9975 9.94024 51.4175 10.3721 51.7395 10.9276C52.0614 11.4781 52.2224 12.1347 52.2224 12.8973C52.2224 13.7205 52.0187 14.4554 51.6112 15.1019C51.2087 15.7433 50.6126 16.2508 49.8228 16.6246C49.033 16.9983 48.0596 17.1852 46.9026 17.1852H40.2999ZM43.5673 14.5034H46.231C47.1415 14.5034 47.8056 14.3291 48.2231 13.9806C48.6406 13.6271 48.8494 13.1574 48.8494 12.5715C48.8494 12.1423 48.7463 11.7635 48.54 11.4352C48.3338 11.1069 48.0395 10.8493 47.6572 10.6625C47.2799 10.4756 46.8296 10.3822 46.3065 10.3822H43.5673V14.5034ZM43.5673 8.16246H45.9895C46.4372 8.16246 46.8347 8.08418 47.1818 7.92761C47.5339 7.76599 47.8106 7.53872 48.0118 7.24579C48.2181 6.95286 48.3212 6.60185 48.3212 6.19276C48.3212 5.63216 48.1225 5.18014 47.7251 4.8367C47.3327 4.49327 46.7743 4.32155 46.0499 4.32155H43.5673V8.16246Z" fill="white"/>
<path d="M55.1984 17.1852V1.67003H61.2955C62.4626 1.67003 63.4586 1.87963 64.2836 2.29882C65.1137 2.71296 65.745 3.30135 66.1777 4.06397C66.6153 4.82155 66.8341 5.71296 66.8341 6.73822C66.8341 7.76852 66.6128 8.65488 66.1701 9.39731C65.7274 10.1347 65.086 10.7003 64.2459 11.0943C63.4108 11.4882 62.3997 11.6852 61.2125 11.6852H57.1302V9.04882H60.6843C61.3081 9.04882 61.8262 8.96296 62.2387 8.79125C62.6512 8.61953 62.9581 8.36195 63.1593 8.01852C63.3656 7.67508 63.4687 7.24832 63.4687 6.73822C63.4687 6.22306 63.3656 5.78872 63.1593 5.43519C62.9581 5.08165 62.6487 4.81397 62.2312 4.63216C61.8187 4.44529 61.298 4.35185 60.6692 4.35185H58.4658V17.1852H55.1984ZM63.5441 10.1246L67.385 17.1852H63.7781L60.0202 10.1246H63.5441Z" fill="white"/>
<path d="M73.2605 1.67003V17.1852H69.9931V1.67003H73.2605Z" fill="white"/>
<path d="M91 9.42761C91 11.1195 90.6806 12.5589 90.0417 13.7458C89.4078 14.9327 88.5426 15.8392 87.4459 16.4655C86.3543 17.0867 85.1268 17.3973 83.7635 17.3973C82.3902 17.3973 81.1577 17.0842 80.066 16.4579C78.9744 15.8316 78.1117 14.9251 77.4778 13.7382C76.844 12.5513 76.527 11.1145 76.527 9.42761C76.527 7.73569 76.844 6.2963 77.4778 5.10943C78.1117 3.92256 78.9744 3.01852 80.066 2.39731C81.1577 1.77104 82.3902 1.45791 83.7635 1.45791C85.1268 1.45791 86.3543 1.77104 87.4459 2.39731C88.5426 3.01852 89.4078 3.92256 90.0417 5.10943C90.6806 6.2963 91 7.73569 91 9.42761ZM87.6874 9.42761C87.6874 8.33165 87.5239 7.40741 87.1969 6.65488C86.8749 5.90236 86.4197 5.33165 85.8311 4.94276C85.2425 4.55387 84.5533 4.35943 83.7635 4.35943C82.9737 4.35943 82.2845 4.55387 81.6959 4.94276C81.1074 5.33165 80.6496 5.90236 80.3226 6.65488C80.0006 7.40741 79.8397 8.33165 79.8397 9.42761C79.8397 10.5236 80.0006 11.4478 80.3226 12.2003C80.6496 12.9529 81.1074 13.5236 81.6959 13.9125C82.2845 14.3013 82.9737 14.4958 83.7635 14.4958C84.5533 14.4958 85.2425 14.3013 85.8311 13.9125C86.4197 13.5236 86.8749 12.9529 87.1969 12.2003C87.5239 11.4478 87.6874 10.5236 87.6874 9.42761Z" fill="white"/>
<path d="M39.8057 30.2222V22.4646H40.9715V25.8359H44.8237V22.4646H45.9933V30.2222H44.8237V26.8396H40.9715V30.2222H39.8057Z" fill="white"/>
<path d="M48.7536 30.2222V22.4646H53.598V23.4722H49.9194V25.8359H53.3452V26.8396H49.9194V29.2146H53.6433V30.2222H48.7536Z" fill="white"/>
<path d="M56.8705 30.2222H55.633L58.4136 22.4646H59.7605L62.5412 30.2222H61.3037L59.1191 23.8737H59.0588L56.8705 30.2222ZM57.078 27.1843H61.0924V28.1692H57.078V27.1843Z" fill="white"/>
<path d="M64.7195 30.2222V22.4646H65.8853V29.2146H69.3866V30.2222H64.7195Z" fill="white"/>
<path d="M70.3915 23.4722V22.4646H76.3716V23.4722H73.9607V30.2222H72.7987V23.4722H70.3915Z" fill="white"/>
<path d="M78.7556 30.2222V22.4646H79.9214V25.8359H83.7736V22.4646H84.9432V30.2222H83.7736V26.8396H79.9214V30.2222H78.7556Z" fill="white"/>
</svg>
