<?xml version="1.0" encoding="utf-8" ?><svg xmlns="http://www.w3.org/2000/svg" xmlns:xlink="http://www.w3.org/1999/xlink" width="1024" height="1024" viewBox="0 0 1024 1024"><path fill="#F9F9F8" d="M0 0L1024 0L1024 1024L0 1024L0 0Z"/><path fill="#228CDF" d="M233.391 366.669C236.837 366.404 240.858 366.675 244.101 367.884C276.069 379.799 308.271 390.749 340.7 401.342C355.865 406.296 353.876 420.402 353.828 433.435L353.771 459.676C353.798 473.924 354.545 497.309 353.348 510.925C350.716 538.011 340.278 563.75 323.301 585.019C304.819 608.137 279.661 625.685 253.542 639.197C247.995 642.067 243.035 644.357 236.795 645.059C221.262 645.203 190.926 624.264 178.136 615.255C144.826 591.792 123.087 556.82 116.986 516.481C115.45 506.323 115.714 496.745 115.723 486.437L115.753 452.893C115.742 440.923 115.415 428.609 115.763 416.64C115.92 414.281 116.919 409.013 118.701 407.357C125.031 401.474 139.186 398.171 147.251 395.564C162.058 390.891 176.833 386.117 191.575 381.242C198.593 378.862 205.568 376.359 212.499 373.734C218.897 371.286 226.824 367.608 233.391 366.669Z"/><path fill="#F9F9F8" d="M236.012 426.218C259.306 425.195 258.083 425.491 258.043 448.577C257.962 456.975 258.018 465.375 258.209 473.772C265.873 473.353 275.034 473.365 282.128 473.309C301.205 473.159 307.057 470.296 305.909 492.657C306.188 497.154 306.019 502.061 306.484 506.52C308.039 521.411 295.402 518.934 283.662 518.978L258.88 519.129L258.687 544.802C258.648 570.128 260.741 569.736 235.75 569.474C227.515 569.579 218.379 571.875 213.545 564.352C212.878 551.209 213.605 532.713 214.012 519.479C204.972 519.49 175.626 521.172 169.731 518.324C167.795 517.388 166.775 516.16 166.172 514.079C165.059 510.237 164.286 481.312 166.636 478.378C168.085 476.568 171.388 475.835 173.534 475.507C178.264 474.782 183.42 475.129 188.208 475.103L213.457 474.968L213.351 448.7C213.247 423.951 212.48 427.226 236.012 426.218Z"/><path fill="#003573" d="M406.002 420.004L446.062 419.963C473.205 419.945 496.417 418.963 517.416 439.288C547.529 468.435 546.89 524.462 518.809 554.119C496.284 575.981 473.607 575.749 444.812 575.716C431.873 575.657 418.934 575.67 405.995 575.755L406.002 420.004Z"/><path fill="#F9F9F8" d="M438.022 448.57C455.71 448.906 478.226 445.676 492.222 458.296C512.195 476.305 511.542 515.059 494.836 534.772C478.352 549.824 459.717 546.729 438.003 546.728L438.022 448.57Z"/><path fill="#003573" d="M602.996 457.201C616.532 455.702 631.134 458.934 642.273 466.885C675.398 490.528 674.283 551.1 637.849 571.194C630.538 575.226 624.242 576.645 616.09 577.93C599.686 578.783 586.483 576.812 573.279 566.424C540.887 540.94 544.818 480.726 582.955 462.535C589.78 459.28 595.598 457.998 602.996 457.201Z"/><path fill="#F9F9F8" d="M605.294 483.594C620.497 482.275 631.152 491.69 633.916 506.067C637.444 524.415 634.121 546.549 612.643 550.968C596.874 551.65 586.402 543.842 583.506 528.482C580.02 509.997 583.779 487.782 605.294 483.594Z"/><path fill="#003573" d="M727.37 457.197C738.819 455.607 754.875 458.431 764.371 465.305C777.146 474.553 781.573 486.657 784.277 501.449L753.769 501.471C750.344 485.247 737.401 478.788 721.831 486.021C709.953 491.54 709.498 508.841 709.36 520.05C709.098 541.354 722.156 558.529 744.966 548.305C749.641 546.215 752.076 539.975 753.422 535.021L767.25 535.01L783.896 535.024C780 559.112 766.521 573.872 741.958 577.578C708.34 582.78 682.493 562.861 678.419 529.073C674.125 493.465 689.319 461.619 727.37 457.197Z"/><path fill="#003573" d="M808.495 432.996L839.996 432.996L839.998 460.018L864.836 460.028C864.87 468.532 864.851 477.037 864.778 485.542L839.996 485.542C839.966 501.566 839.867 517.681 840.03 533.698C840.076 538.179 840.97 546.28 844.448 549.267C848.35 552.619 859.776 550.724 864.871 550.161L864.852 566.25L864.84 574.712C844.111 578.598 815.88 579.089 809.398 552.458C807.542 544.831 808.467 533.891 808.476 525.767L808.483 485.553L793.014 485.607L793.015 460.045L808.49 460.025L808.495 432.996Z"/></svg>