<svg width="1024" height="1024" viewBox="0 0 1024 1024" fill="none" xmlns="http://www.w3.org/2000/svg">
<g clip-path="url(#clip0_5_6)">
<path d="M0 0H1024V1024H0V0Z" fill="#73D29E"/>
<path d="M252.034 332.735C282.451 332.503 312.869 332.43 343.286 332.516C335.111 338.404 325.854 345.074 317.451 350.514L269.588 350.701C263.593 350.708 255.333 349.992 249.59 350.683C232.188 352.778 233.454 377.863 251.947 378.141C265.769 378.348 279.622 378.335 293.411 378.365L379.593 378.404L640.5 378.416L716.055 378.342C728.708 378.321 741.735 378.088 754.373 378.625C759.34 378.836 765.342 384.55 765.616 389.743C766.253 401.809 765.908 414.168 765.864 426.31L765.627 502.921L733.131 502.96C710.741 502.975 694.028 502.136 676.2 518.537C664.474 529.325 658.659 543.297 658.149 559.082C657.434 581.213 656.982 599.864 673.336 617.003C686.652 630.958 700.153 634.707 718.637 635.287C734.42 635.205 750.202 635.222 765.984 635.339L765.857 715.847C765.884 728.594 766.306 741.622 765.636 754.23C765.283 760.887 756.796 768.452 750.468 768.874C744.07 769.302 736.799 769.121 730.373 769.096L695.502 769.077L565.536 769.086L365.438 769.188C342.553 769.32 319.667 769.324 296.782 769.2C283.265 769.229 269.231 769.492 255.755 768.95C247.86 768.495 240.901 765.747 234.835 760.802C218.535 747.515 220.89 730.723 220.88 711.754L220.942 670.936L220.905 546.142L220.979 420.091C221.019 408.242 220.996 396.393 220.91 384.545C220.87 378.245 220.532 368.754 221.101 362.677C221.703 355.673 224.553 349.051 229.226 343.799C235.383 336.76 242.8 333.365 252.034 332.735Z" fill="#FEFEFE"/>
<path d="M569.887 451.748L570.855 451.775L571.134 452.563C569.522 457.048 559.643 474.722 557.024 479.498L516.682 479.512C524.831 488.415 527.444 493.469 529.62 505.236C543.539 505.578 558.142 505.406 572.114 505.44C568.407 513.46 562.205 524.509 557.931 532.456C548.609 531.915 539.23 532.33 529.887 532.555C525.929 554.598 514.745 567.518 495.093 578.223C483.501 584.538 473.246 585.444 460.409 586.46C469.527 597.277 482.179 610.015 491.952 620.449L548.594 681.437C535.442 681.876 522.285 682.097 509.126 682.102C506.181 679.097 503.321 675.938 500.597 672.733C485.401 654.846 469.522 637.278 454.398 619.354C445.713 608.568 430.126 592.922 423.042 582.504C422.755 576.722 422.843 569.822 422.774 563.959C444.831 562.987 466.751 566.879 485.031 551.601C492.124 545.673 495.658 540.794 499.131 532.341C494.984 532.241 490.648 532.253 486.502 532.336C461.738 532.833 436.573 532.015 411.856 532.96C415.306 524.946 421.631 513.639 425.717 505.491C450.146 505.564 474.576 505.504 499.004 505.312C484.328 479.369 464.49 479.132 437.383 479.574C428.522 479.76 419.661 479.872 410.799 479.912C414.368 471.74 420.485 462.165 424.698 452.915C473.096 452.788 521.493 452.399 569.887 451.748Z" fill="#73D29E"/>
<path d="M567.749 191.906C569.65 192.255 570.693 192.533 571.882 194.211C589.349 218.849 605.893 244.139 623.341 268.798C625.021 271.172 627.256 274.982 626.652 277.927C620.466 281.451 605.554 286.074 598.171 288.703L542.696 308.446L449.954 341.192C433.636 347.026 417.329 353.129 400.952 358.78C398.144 359.748 396.521 359.841 393.625 359.886C383.261 359.901 372.897 359.984 362.534 360.134C352.777 360.3 342.83 360.726 333.121 359.92C338.821 354.59 348.779 347.948 355.417 343.242L385.546 321.64L482.796 252.002C502.597 237.63 522.513 223.417 542.542 209.365C549.393 204.517 560.93 195.302 567.749 191.906Z" fill="#FEFEFE"/>
<path d="M710.99 521.651C715.131 521.403 719.414 521.43 723.586 521.476C747.511 521.741 771.548 520.956 795.439 521.816C798.703 521.934 800.759 524.85 802.453 527.256C802.48 528.04 802.5 528.823 802.513 529.607C802.832 555.508 802.384 582.318 802.171 608.251C802.141 610.046 799.944 613.609 798.242 614.177C790.649 616.711 777.399 615.588 769.575 615.537L731.091 615.627C724.851 615.641 714.245 615.985 708.479 614.986C703.662 614.134 699.05 612.376 694.887 609.806C680.201 600.807 676.648 587.544 677.269 571.446C677.737 559.317 676.273 550.03 683.426 539.211C690.245 528.9 699.282 524.351 710.99 521.651Z" fill="#FEFEFE"/>
<path d="M722.693 546.165C735.203 544.127 747.004 552.597 749.078 565.102C751.151 577.607 742.716 589.432 730.217 591.541C717.667 593.659 705.784 585.182 703.702 572.626C701.62 560.07 710.131 548.211 722.693 546.165Z" fill="#73D29E"/>
<path d="M673.625 281.001C677.651 280.856 678.616 281.842 680.161 285.578C681.959 289.928 683.471 294.422 685.127 298.831L695.023 325.065C697.269 331.103 707.154 353.851 705.49 358.213C703.063 359.913 631.224 359.349 622.354 359.345L484.494 359.692C473.455 359.891 462.413 359.974 451.372 359.941C474.754 350.699 502.423 342.036 526.416 333.384L608.572 304.217C629.853 296.593 652.32 288.138 673.625 281.001Z" fill="#FEFEFE"/>
<path d="M717.552 332.84L746.037 332.769C751.857 332.755 757.937 332.739 763.501 332.866C779.34 332.427 798.731 346.93 801.303 362.963C803.508 376.708 802.521 397.536 802.491 412.038L802.323 502.931C796.691 503.147 790.215 503.035 784.516 503.07L784.57 420.116C784.571 413.065 784.474 405.713 784.565 398.748C784.721 386.7 784.773 377.411 775.649 368.355C766.253 359.03 757.228 359.238 744.962 359.303C738.793 359.354 732.624 359.37 726.454 359.351C723.578 350.483 720.61 341.646 717.552 332.84Z" fill="#FEFEFE"/>
<path d="M784.533 635.245L802.343 635.173C802.607 652.739 802.544 670.403 802.492 687.973C802.433 708.382 805.014 723.158 793.109 741.045C790.788 744.201 787.464 748.605 784.44 751.022C784.648 713.016 783.653 672.935 784.533 635.245Z" fill="#FEFEFE"/>
</g>
<defs>
<clipPath id="clip0_5_6">
<rect width="1024" height="1024" fill="white"/>
</clipPath>
</defs>
</svg>
