<svg width="323" height="83" viewBox="0 0 323 83" fill="none" xmlns="http://www.w3.org/2000/svg" class="Signup_logo__iISLZ"><path d="M35.0126 38.7901L15.7729 21.4865L28.1701 19.5693L44.1974 34.1188L39.7025 42.0896L55.9277 56.9182L67.8714 55.0711L49.986 36.4745" stroke="white" stroke-width="3"></path><path d="M75.108 34.8159L56.5705 14.4702C56.4322 14.3183 56.2602 14.2008 56.0683 14.1272C55.8764 14.0536 55.67 14.0259 55.4655 14.0463C55.261 14.0667 55.0641 14.1346 54.8904 14.2447C54.7168 14.3547 54.5713 14.5038 54.4656 14.6801L34.3294 48.2468C34.0793 44.7954 32.6025 41.5479 30.1661 39.0914C27.7297 36.635 24.4945 35.1319 21.0458 34.854C17.597 34.5761 14.1624 35.5418 11.3631 37.5763C8.56374 39.6108 6.58456 42.5799 5.78348 45.9465C4.9824 49.3131 5.41232 52.8551 6.99548 55.9316C8.57864 59.0082 11.2105 61.4163 14.4151 62.7203C17.6197 64.0244 21.1853 64.1384 24.4672 63.0416C27.7491 61.9448 30.5305 59.7098 32.3084 56.7406L55.8147 17.5559L73.1588 36.5918C73.2749 36.7213 73.4155 36.8265 73.5726 36.9014C73.7296 36.9763 73.8999 37.0193 74.0736 37.0281C74.2473 37.0368 74.4211 37.0111 74.5849 36.9524C74.7486 36.8936 74.8992 36.8031 75.0278 36.6859C75.1564 36.5687 75.2606 36.4272 75.3343 36.2696C75.408 36.112 75.4497 35.9413 75.4572 35.7675C75.4646 35.5937 75.4376 35.4201 75.3777 35.2568C75.3177 35.0935 75.2261 34.9436 75.108 34.8159ZM13.77 59.4578C11.7579 58.2508 10.1491 56.4741 9.14687 54.3523C8.14467 52.2306 7.79413 49.8591 8.1396 47.5377C8.48506 45.2164 9.51101 43.0495 11.0877 41.311C12.6644 39.5725 14.721 38.3405 16.9975 37.7708C19.2739 37.2012 21.668 37.3194 23.877 38.1106C26.0859 38.9017 28.0105 40.3303 29.4074 42.2156C30.8043 44.101 31.6107 46.3584 31.7246 48.7024C31.8386 51.0464 31.255 53.3718 30.0477 55.3844C28.4262 58.0806 25.8018 60.0237 22.7502 60.7873C19.6985 61.5509 16.469 61.0728 13.77 59.4578Z" fill="white"></path></svg>
