<?xml version="1.0" encoding="utf-8"?>
<!DOCTYPE svg PUBLIC "-//W3C//DTD SVG 1.0//EN" "http://www.w3.org/TR/2001/REC-SVG-20010904/DTD/svg10.dtd">
<svg version="1.0" xmlns="http://www.w3.org/2000/svg" width="1024px" height="1024px" viewBox="0 0 1024 1024" preserveAspectRatio="xMidYMid meet">
 <g fill="#ffffff">
  <path d="M0 512 l0 -512 512 0 512 0 0 512 0 512 -512 0 -512 0 0 -512z m569 473.5 c45.8 -5 81.9 -14 125.5 -31.2 99.7 -39.3 182.8 -107.8 245 -202.3 17.6 -26.7 33.5 -55.5 33.5 -60.7 0 -1.3 -1 -2.9 -2.4 -3.8 -2.2 -1.5 -2.9 -1.4 -8.7 0.6 -9.1 3.1 -22.9 10.3 -31.8 16.7 -13.7 9.8 -24 19.3 -57 52.3 -54 54 -83.5 77.2 -122.9 96.8 -34.3 17.1 -65.2 24.7 -114.7 28.2 -18.3 1.3 -56.6 0.7 -74 -1.1 -27.5 -2.9 -55.3 -9.1 -77 -17.2 -41.8 -15.6 -60.6 -35.5 -60.5 -64.3 0.1 -14.8 3.9 -24.5 13.5 -34 12.9 -12.8 28.1 -17.5 56.7 -17.5 l15.8 0 0 2.5 c0 4.4 2.8 8.2 9.2 12.8 9 6.4 17.1 10.2 29 13.7 34.1 9.9 78.7 10.6 97.5 1.4 7 -3.4 11.6 -8.8 10.7 -12.9 -2.1 -10.2 -13.9 -20.8 -26.6 -23.9 -2.3 -0.5 -2.8 -1.2 -2.8 -3.9 0 -3 0.5 -3.4 9.7 -8.2 5.3 -2.7 13.3 -7.4 17.7 -10.3 l8.1 -5.4 8.5 0.4 c7.1 0.3 9.6 0.9 15.4 3.6 12.3 5.8 18.6 11.7 36.1 33.8 4.8 6 9.3 11.3 10.1 11.7 2.2 1.2 7.4 -0.7 22.2 -8.4 12.3 -6.3 39.8 -23.6 38.9 -24.5 -0.2 -0.2 -4.1 0.3 -8.7 1.2 -12.1 2.3 -33.8 1.6 -40 -1.2 -11.5 -5.3 -15 -13.7 -15 -36.3 0 -18.2 0.9 -25.7 6.6 -54.5 5.9 -30.1 7.2 -33 16.5 -38.1 7.1 -3.8 17.2 -6.4 29.9 -7.5 19.8 -1.8 23.9 -4.4 28 -17.1 1.2 -4.1 3.3 -9.1 4.6 -11.1 6.3 -9.9 21.9 -15.9 37.4 -14.3 14.4 1.5 23.6 9.2 25.6 21.3 l0.6 3.9 5.7 0.6 c9.2 0.8 18.2 6.3 21.8 13.2 l1.6 3 1.9 -4.5 c9.8 -22.7 19.5 -55.1 23.3 -77.5 l0.7 -4 -3.4 3.1 c-10.3 9.6 -23.9 17 -37.6 20.4 -29.6 7.3 -74.3 2.6 -83.3 -8.9 -4.8 -6 -1.2 -14.8 9.4 -22.9 6.8 -5.3 10.4 -6.7 20.2 -8.2 11.9 -1.8 12.1 -1.8 14.5 -3.8 l2.3 -1.9 -8.1 -9.3 c-9 -10.3 -13.8 -18.7 -17.4 -30 -2 -6.4 -2.3 -9.5 -2.2 -21 0.1 -11.7 0.5 -14.6 2.7 -21.5 3.7 -11.1 9 -19.6 17.3 -27.5 18.3 -17.3 46.6 -22.9 69.5 -13.6 3.5 1.4 6.4 2.4 6.6 2.3 0.3 -0.4 -6.7 -20.3 -10.7 -30.2 -1.7 -4.4 -5.9 -13.8 -9.3 -20.9 -6.2 -13.1 -7.5 -14 -7.6 -5.9 -0.1 4.9 -4.7 18.2 -8 23.5 -3.8 6 -11 11.2 -18.2 13.2 -6.4 1.8 -23.1 2.1 -32.9 0.6 -27 -4.3 -58.7 -25.4 -77.1 -51.2 -6.4 -9.1 -15.1 -26.9 -17.9 -36.8 -3 -10.4 -3.7 -26.3 -1.6 -36 4.9 -23.1 19.7 -36.1 42.6 -37.3 l4.5 -0.2 -8.5 -5.3 c-19.1 -12 -55.5 -28.1 -80.7 -35.7 -28.3 -8.7 -51.9 -11.9 -86.8 -11.9 -34 0 -57.5 2.6 -85 9.5 -22.9 5.8 -50.1 15.6 -66.3 23.9 l-7.7 3.9 4.5 0.1 c8.1 0.1 23.3 3 27.4 5.3 6.3 3.5 7.9 6.4 8.4 15.6 1.1 20 -9.5 41.6 -31.4 63.6 -19 19.1 -57.6 44.5 -82 53.9 -17 6.5 -40.1 9.5 -50.9 6.5 -5.6 -1.6 -10.2 -6.8 -11.1 -12.6 l-0.7 -4.7 -5 10 c-21.2 42.2 -33.3 85.9 -36.8 133.4 -2.4 32.9 2.2 73.8 12.2 107.8 1.7 5.9 3.4 11.5 3.7 12.6 0.3 1.3 1.1 0.1 2.7 -4.2 4.2 -11.6 13.1 -20.9 24.3 -25.4 5.2 -2.1 7.3 -2.3 23.2 -2.3 l17.5 0 12.1 4.2 c31.1 10.6 61 30.6 68.7 45.9 3.8 7.5 6.6 17.6 8.8 31.9 2.3 14.5 3.1 17.8 6.5 24.9 1.3 2.8 2.4 6.2 2.4 7.8 0 3.5 -0.6 3.5 -16.7 0.9 -6.5 -1.1 -15.1 -2.3 -19.1 -2.7 -6.4 -0.6 -7.5 -1 -9.2 -3.5 -2.5 -3.5 -4.2 -8.1 -7.6 -21.1 -3.4 -13.1 -6.3 -18.6 -13.9 -25.6 -11.1 -10.4 -27.7 -17.6 -46.8 -20.2 -16.9 -2.4 -28.4 4 -30.2 16.8 -1.3 9.9 5.7 32.2 15 47.6 2.7 4.4 3.5 6.8 3.3 9.5 l-0.3 3.6 -9.5 2.2 c-31 7.4 -56.6 8.1 -79.7 2.2 -17.6 -4.5 -37.1 -15.7 -50.4 -28.9 -21.7 -21.7 -34.2 -50.3 -41.1 -94 -2.1 -13.3 -2.3 -17.8 -2.3 -54 0 -42.2 0.4 -47 6.1 -78 5.1 -27.8 11.6 -50.4 22.1 -77 28.5 -72.3 77.6 -136.4 140.8 -184.1 45.2 -34.1 96.2 -58 154.5 -72.3 61.8 -15.1 124 -16.4 191.5 -4.1 61.4 11.3 123.2 38 172.4 74.5 23.5 17.4 47.2 39.2 68.5 63 l5.9 6.5 -5.8 -7.5 c-31.8 -41.7 -79.7 -85.5 -125.8 -114.9 -66.2 -42.2 -135.3 -65.5 -219.7 -74.3 -16.7 -1.7 -74.6 -1.7 -90.5 0 -40.5 4.4 -68.6 10.1 -103.3 20.8 -104.1 32.3 -197.7 101.8 -256.7 190.4 -58.6 88.1 -89.3 195.1 -84.5 294.6 5.5 115.5 47.5 218.7 124.6 305.9 20.9 23.8 46.2 47 73.9 67.8 55.9 42.1 114.6 70.6 180 87.2 29.9 7.6 50.1 10.7 90 13.9 11.3 0.9 61.7 -0.4 75.5 -1.9z m228.6 -286.5 c9.8 -3.7 20.2 -10.8 30.8 -21 20 -19.2 28.5 -38.3 22.6 -50.5 -2.6 -5.4 -8.5 -10.1 -13.9 -11.1 -1.9 -0.4 -5.8 -0.2 -8.6 0.4 -14.7 3.1 -27.5 10.9 -42.6 26.1 -9.2 9.2 -11.2 11.9 -15.3 20.2 -7.7 15.4 -7.6 25.6 0.3 33.3 7.3 7.2 13.4 7.8 26.7 2.6z m108 -224.9 c15.1 -6.9 22.2 -30.8 15.9 -54.1 -5.4 -20.2 -20.6 -36.2 -33.1 -34.7 -14 1.5 -24.8 18.1 -24.8 38.2 0 21 12.1 42.9 27.6 50 6.4 2.9 9.1 3 14.4 0.6z m-61 -170 c6.8 -3.1 12.4 -12.5 12.4 -20.8 0 -10 -6.7 -25.1 -17.6 -39.6 -14.8 -19.7 -36.4 -34.8 -52 -36.4 -13.6 -1.4 -24.1 11.4 -21.7 26.2 4.7 27.7 32.4 60.7 59.1 70.1 8.1 2.8 14.3 3 19.8 0.5z m-465.6 -45.7 c9.4 -3 22.1 -10 34.3 -19.3 11.5 -8.6 16.7 -14.3 20.9 -22.8 3.1 -6.4 3.1 -6.5 1.4 -9.7 -4 -7.5 -11.8 -8.7 -23.9 -3.6 -21.1 8.8 -47 32.5 -52.7 48.2 -1.2 3.2 -1.1 4 0.4 6.3 3.2 4.9 6.2 5.1 19.6 0.9z"/>
  <path d="M573.7 662.7 c-3.6 -3.5 -4.7 -6.6 -4.7 -14 0 -7.4 1.4 -10.3 5.9 -13.4 4 -2.7 13.1 -3.1 18.6 -0.9 6.7 2.8 10.6 12.7 9.1 23.1 -0.9 5.8 -2.4 6.4 -16.1 7.2 -9.7 0.5 -10.1 0.5 -12.8 -2z"/>
  <path d="M603.1 589.7 c-2.5 -1.2 -10.1 -7.4 -17 -13.8 -6.9 -6.4 -16.9 -15.1 -22.1 -19.4 -21.2 -17.5 -35.2 -32.8 -51.7 -56.5 -16 -22.9 -18.7 -29.8 -18.1 -45.7 0.3 -8.9 0.5 -9.6 3.1 -11.9 1.8 -1.5 4.1 -2.4 6.3 -2.4 3.9 0 4 -0.5 1.9 -7.4 -0.9 -2.9 -1.5 -8.9 -1.5 -14.8 0 -15 2.3 -17.8 14.4 -17.8 l6.3 0 -0.9 -5.2 c-1.5 -7.8 -0.5 -25.6 1.5 -29.5 2.7 -5.1 5.3 -6.3 13.2 -6.3 8.6 0 15.3 2.8 22.4 9.5 l4.8 4.5 0.6 -15.7 c0.5 -17.4 1.7 -24.1 5.4 -32.1 3.3 -7.1 7.7 -10.2 15 -10.9 7.2 -0.6 11.9 1.2 17.3 6.9 9.7 9.9 17.9 25.6 28.5 54.2 3.6 9.8 7 18.7 7.6 19.8 2.2 4.1 8.1 9.7 11.4 10.8 4.9 1.6 9.9 -0.9 21.4 -10.8 5.1 -4.5 10.9 -8.7 13 -9.4 2 -0.7 7.4 -1.2 12.1 -1.2 10.2 0.1 17.9 2.7 23.4 8 4.9 4.7 6.6 9.3 6.6 17.6 0 11.3 -3.8 20.3 -14.8 34.8 -8.5 11.2 -11.6 23.9 -13.2 53.3 -1.2 20.9 -2.9 29.5 -7.7 39.4 -6.3 13 -16.5 22.4 -44.7 41.2 -18.5 12.4 -20 13.1 -31.1 13.1 -7.3 0 -9.8 -0.4 -13.4 -2.3z m14.2 -25.8 c12.4 -6.4 45.8 -35.3 49.9 -43.4 3.4 -6.6 6.7 -19.8 8.3 -33 2 -17.2 4.9 -31.9 7.5 -38.6 1.1 -2.8 4.3 -8.6 7.1 -13 3 -4.6 4.9 -8.6 4.5 -9.5 -0.3 -0.8 -2.1 -2.1 -4.1 -2.9 -10.4 -4.4 -21.9 1.4 -31.5 16 -1.8 2.8 -4.2 5.8 -5.4 6.7 -2.9 2.4 -12.7 2.4 -16.3 0.1 -4.2 -2.8 -9.5 -12 -16.3 -28.5 -3.5 -8.4 -7.3 -17.5 -8.6 -20.3 -1.2 -2.7 -4.3 -9.7 -6.9 -15.5 -5.7 -12.6 -8.6 -17.8 -12 -21 l-2.5 -2.3 -1.7 3.9 c-2.5 5.5 -2.3 24.1 0.6 40.1 2.4 13.7 2.6 19.4 0.9 21.1 -0.7 0.7 -3.5 1.2 -6.4 1.2 l-5.1 0 -9.4 -9.3 c-9.6 -9.5 -19.4 -17.7 -21 -17.7 -1.8 0 -0.8 5.3 2.7 14.3 3.7 9.7 10.4 23.4 13.5 27.9 2.4 3.3 2.6 12 0.4 13.8 -1 0.8 -3.2 1.1 -6 0.7 -4.1 -0.4 -5.5 -1.4 -13.9 -9.5 -16.9 -16.3 -21 -15.5 -12.2 2.4 2.5 4.9 6.7 12.3 9.5 16.4 3.5 5.1 5.1 8.5 5.1 10.7 0 5.7 -0.7 6.3 -7.1 6.3 -5.7 0 -5.9 -0.1 -12.6 -6 -3.7 -3.3 -7.3 -6 -8 -6 -4.9 0 21.5 39.3 38.1 56.7 9.1 9.5 23.2 21.6 41.1 35 8 6 11.1 6.6 17.8 3.2z"/>
  <path d="M321.4 516.9 c-7.4 -3.8 -6.9 -25.9 0.7 -32.3 4.2 -3.5 11 -3.6 14.4 -0.2 6.2 6.2 6 22.7 -0.4 29.8 -2.2 2.5 -3.7 3.1 -7.7 3.4 -2.7 0.2 -5.9 -0.1 -7 -0.7z"/>
  <path d="M352.1 514.4 c-3.4 -2.4 -5.1 -7.4 -5.1 -14.9 0 -11.1 3.7 -16.5 11.3 -16.5 7.9 0 13.3 5.6 14.4 14.8 0.8 6.8 -0.3 11.5 -3.3 15.2 -2.4 2.7 -3.1 3 -8.8 3 -4.1 0 -6.9 -0.5 -8.5 -1.6z"/>
  <path d="M291.1 485.1 c-2.6 -2.6 -4.1 -8.2 -4.1 -15.2 0 -11.8 3.2 -22 11.1 -35 11.8 -19.4 14.3 -26 16.4 -43.7 0.9 -7 2.2 -18.1 3 -24.6 1.7 -14.1 4 -19.6 10.3 -24.3 6.5 -4.9 12.6 -6.3 27.1 -6.3 20.7 0 29 3.5 34.6 14.5 2.9 5.6 3 6.3 2.9 18.4 -0.1 18.5 -4.3 33.9 -13.1 49 -4.6 7.8 -15.3 20.4 -21.2 24.9 -4.1 3.1 -4.8 3.3 -10.9 3 -6.4 -0.3 -6.7 -0.4 -8.6 -3.8 -3.2 -5.4 -3.6 -25.4 -0.7 -34.8 2.4 -7.9 4.6 -10.3 12 -12.7 13.1 -4.3 20.9 -18.2 15.4 -27.7 -3.1 -5.4 -7.9 -8.1 -13.6 -7.5 -8.9 0.8 -14.9 7.7 -17.1 19.7 -0.8 4.1 -1.9 17.4 -2.5 29.5 -1.4 26.3 -2.5 36.5 -5.3 46.5 -3.8 13.9 -11.9 26.9 -18.9 30.6 -4.3 2.2 -14.4 1.9 -16.8 -0.5z"/>
  <path d="M705.2 359.9 c-6 -1.5 -10.9 -6.5 -11.7 -12.4 -0.9 -5.7 0.2 -12.9 2.5 -17.6 4.4 -8.5 19 -21.7 29.7 -26.7 5 -2.3 7.1 -2.7 14.8 -2.7 10.4 0 15.3 1.4 19.5 5.7 2.8 2.7 3 3.5 3 10.2 0 10.3 -2.9 15.7 -14.9 27.7 -12.2 12.1 -18.9 15.7 -30.6 16.4 -4.4 0.2 -9.9 0 -12.3 -0.6z"/>
  <path d="M518.5 325.7 c-7.9 -3.7 -11.3 -12.8 -8.4 -22.9 1.6 -5.9 6.6 -8.8 15.4 -8.8 12.1 0 17.3 5.5 16.2 17.1 -0.6 6.6 -2.6 11 -6.3 13.4 -3.5 2.3 -13 3 -16.9 1.2z"/>
  <path d="M462.1 311.9 c-8.8 -3.5 -12.1 -9.4 -12.1 -21.7 0 -7.8 0.3 -9.2 2.4 -12.1 1.4 -1.9 4.2 -4.5 6.3 -5.9 3.4 -2.3 5 -2.7 13.8 -3 12 -0.4 15.3 0.9 20.3 8.2 2.9 4.4 3.2 5.5 3.2 12.2 0 11.9 -3.6 17.8 -13.5 22 -3.9 1.6 -16.7 1.8 -20.4 0.3z"/>
  <path d="M586.1 250.9 c-30.7 -2.5 -49 -10.7 -56 -25.3 -4.7 -9.7 -5.2 -33.3 -1 -50.1 2.2 -9 7.3 -20.5 11.2 -25 6 -7.2 19.6 -11.5 42.2 -13.4 46.5 -4.1 101.4 4.9 121 19.7 3.8 2.9 5.9 5.6 9 11.6 l4 7.9 0 23.6 c0 27.5 -0.1 27.8 -10.4 37.3 -6.7 6.3 -12.4 8.8 -26.6 12.1 -8 1.8 -12.9 2 -45.5 2.2 -20.1 0.2 -41.6 -0.1 -47.9 -0.6z m73.9 -27.5 c10.4 -1.8 22.8 -5.8 27.1 -8.7 5 -3.4 6.9 -6.7 8.1 -14.2 2 -13 -0.4 -24.7 -6.1 -29.9 l-2.1 -1.9 0 5 c0 17.1 -26 25 -70.5 21.4 -23.6 -1.9 -35.7 -5.4 -43.1 -12.5 -4.3 -4.2 -4.4 -4.3 -4.4 -11 0 -6.3 0.2 -6.9 3.5 -10.3 3 -3.1 3.3 -3.8 2 -4.5 -1.9 -1.1 -9.2 2.1 -12.2 5.3 -2.7 3 -5.4 9.8 -8.8 22.4 -2.6 9.5 -2.6 9.8 -1 14.8 3.7 11.6 11 19.7 20 22.2 2.7 0.7 13.1 1.9 23 2.5 9.9 0.6 20 1.2 22.5 1.4 8.3 0.7 33.4 -0.5 42 -2z m-6.2 -49.3 c9.3 -4.2 8.7 -7 -2.4 -11.5 -19.6 -8 -46.3 -7.5 -56.4 1.1 -2.9 2.4 -3 2.7 -1.5 4.3 0.9 1 4 2.8 6.8 3.9 9.8 4 17.3 5.1 33.2 4.8 13.2 -0.3 15.6 -0.6 20.3 -2.6z"/>
 </g>
 <g fill="#36bdff">
  <path d="M490.5 990.4 c-39.6 -3.2 -60.1 -6.3 -90 -13.9 -156.4 -39.7 -288.5 -156.1 -345.9 -304.8 -33.4 -86.5 -41.8 -181.5 -24.1 -272.2 19.3 -98.6 67.4 -189.4 136 -256.8 68.8 -67.8 156.5 -113.7 252 -132.1 33 -6.3 54.3 -8.1 96 -8.1 36.5 0 46.6 0.6 75.5 4.6 68.2 9.4 134.2 33.7 192.7 71 55 35.1 108.2 86.6 142 137.4 14.6 21.9 31 51.9 29.1 53.1 -0.7 0.4 -1.7 -0.1 -2.2 -1.1 -2.8 -4.8 -21.9 -33 -26.1 -38.7 -49.8 -65.7 -107 -110.9 -178 -140.6 -64.2 -27 -139.1 -38.4 -210.5 -32.1 -46.7 4.1 -102.6 19.7 -146.6 40.8 -43.4 20.9 -82.6 49.1 -116.9 84.2 -33.7 34.4 -57.5 67.8 -79 110.9 -16.7 33.4 -28.9 70.2 -35.9 108 -5.6 30.5 -6.1 36.1 -6 75 0 33 0.2 37.9 2.2 51 6.9 43.7 19.4 72.3 41.1 94 26.9 26.8 65 37.8 106.1 30.5 16.2 -2.9 27.5 -6 27.5 -7.5 0 -2.2 1.2 -2.7 11.2 -4.9 16.4 -3.7 31.4 -5.1 53.6 -5.1 19.6 0 21.3 0.1 22.4 1.9 0.9 1.4 2.9 2 8.5 2.5 8 0.8 25.1 3.3 28.3 4.3 1.6 0.4 1.8 0.3 0.8 -0.8 -2 -2 -1.5 -3.2 1 -2.5 1.2 0.3 8.3 1.9 15.7 3.6 7.4 1.6 22.3 4.9 33 7.4 27.1 6.1 42.3 8.6 58 9.3 9.4 0.4 14.2 1 15.9 2 1.8 1.2 4 1.4 9.4 0.8 9.8 -0.9 11.3 -1.7 12.1 -5.9 0.7 -3.5 3.6 -5.2 3.6 -2.1 0 0.8 0.2 1.5 0.4 1.5 2.4 0 20.8 -6.3 34.8 -11.9 9.6 -3.9 21.5 -8 26.4 -9.2 9.4 -2.3 24.2 -3 32.5 -1.6 5.1 0.9 13.9 6.1 13.9 8.2 0 0.7 0.6 1.5 1.3 1.8 0.9 0.3 1.2 3.5 1.2 11.8 0 11.3 -0.1 11.7 -3.8 19.1 -6.1 12.4 -18.6 27.6 -32 38.9 -4.4 3.7 -6.6 4.9 -9.2 4.9 -2.3 0 -5.5 1.5 -10.7 4.9 -4 2.7 -12 7.4 -17.6 10.4 -10 5.2 -10.3 5.5 -7.6 6.4 2.6 0.9 1.9 1.3 -8.7 5.2 -26.5 9.8 -53.5 13.8 -86.4 12.7 -26 -0.8 -30.5 -1.4 -30.5 -3.7 0 -1.8 -1 -1.9 -12.8 -1.9 -25.4 0 -41.3 5.2 -53.7 17.5 -11.7 11.6 -16 26.6 -12 42 5.6 21.5 24.3 37.4 59 50.3 47.4 17.7 111.6 23.5 173.5 15.6 32.7 -4.1 58.9 -11.9 86.2 -25.5 39.4 -19.6 68.9 -42.8 122.9 -96.8 42 -42.1 54.3 -52.5 73.5 -62.3 17.6 -9 26.5 -10.8 31.1 -6.2 2.1 2.1 2.5 3.2 2 6.6 -1.1 7.9 -15.5 34.4 -34.2 62.8 -62.3 94.5 -145.3 163 -245 202.3 -43.6 17.2 -79.5 26.2 -125.5 31.2 -13.8 1.6 -69.5 2.8 -81.5 1.9z"/>
  <path d="M606 569.3 c-3.1 -1 -6 -2.7 -6 -3.5 0 -0.4 2.5 -0.8 5.5 -0.8 5.2 0 5.5 0.1 5.5 2.5 0 2.5 -1.4 3 -5 1.8z"/>
  <path d="M535 359.5 c0 -2.2 0.4 -2.5 3.5 -2.5 3.1 0 3.5 0.3 3.5 2.5 0 2.2 -0.4 2.5 -3.5 2.5 -3.1 0 -3.5 -0.3 -3.5 -2.5z"/>
  <path d="M618.3 228.3 c-2.9 -1.1 -1.1 -3.2 3.3 -3.9 5 -0.7 20 -0.1 21 0.9 0.4 0.3 0.4 1.3 0.1 2.2 -0.5 1.2 -2.6 1.5 -11.9 1.4 -6.2 0 -11.9 -0.3 -12.5 -0.6z"/>
 </g>
 <g fill="#00acf1">
  <path d="M525 755.1 c0 -1.5 0.9 -2 4 -2.3 2.2 -0.2 4 0 4 0.4 0 0.5 0.7 0.8 1.5 0.8 0.8 0 1.5 0.7 1.5 1.5 0 1.2 -1.3 1.5 -5.5 1.5 -4.7 0 -5.5 -0.3 -5.5 -1.9z"/>
  <path d="M557 755.5 c0 -0.8 0.7 -1.5 1.5 -1.5 0.8 0 1.5 -0.4 1.5 -1 0 -0.6 1.8 -0.7 4.6 -0.3 3 0.4 4.8 0.2 5.3 -0.6 1.1 -1.8 7.1 -0.2 7.1 1.9 0 1.4 -1.3 1.8 -6.7 2.3 -10.7 1.1 -13.3 0.9 -13.3 -0.8z"/>
  <path d="M663.4 715.9 c-0.4 -0.6 0.1 -0.9 1.3 -0.7 1 0.1 3.3 -0.8 5.1 -2 l3.2 -2.3 0 3 c0 3 -0.2 3.1 -4.4 3.1 -2.5 0 -4.8 -0.5 -5.2 -1.1z"/>
  <path d="M572.3 661.3 c-1.5 -0.6 -1.8 -7.3 -0.3 -7.3 0.6 0 1 0.4 1 0.9 0 0.5 1.4 2.3 3.1 4 l3.1 3.1 -2.9 -0.1 c-1.5 0 -3.4 -0.3 -4 -0.6z"/>
  <path d="M621 650.9 c0 -2.8 0.2 -2.9 4.5 -2.9 3.2 0 4.5 0.4 4.5 1.4 0 0.8 -2 2.1 -4.5 2.9 l-4.5 1.6 0 -3z"/>
  <path d="M631 647.3 c0 -2.7 0.5 -3.1 9.3 -6.5 27.3 -10.7 44.9 -13.1 60 -8.2 4.2 1.4 4.7 1.9 4.7 4.4 l0 2.9 -3.2 -1.9 c-5.2 -3 -15.8 -4.3 -24.5 -3 -12.5 1.9 -19.3 4.1 -45 14.7 -0.9 0.3 -1.3 -0.5 -1.3 -2.4z"/>
  <path d="M630.5 611.2 c-2.2 -0.2 -4.4 -0.8 -4.9 -1.3 -0.6 -0.5 -1.8 -0.9 -2.8 -0.9 -1 0 -1.8 -0.4 -1.8 -1 0 -0.5 -1.6 -1 -3.5 -1 -2.8 0 -3.5 -0.4 -3.5 -2 0 -1.1 -0.4 -2 -1 -2 -0.5 0 -1 0.5 -1 1.1 0 1.4 -15 0.6 -15.9 -0.9 -0.3 -0.5 -3.1 -0.9 -6.1 -1 -9.6 -0.1 -17.5 -1.3 -18.3 -2.8 -0.4 -0.8 -2.1 -1.4 -3.7 -1.4 -2.3 0 -3 -0.5 -3 -1.9 0 -1.4 -1 -2 -4.1 -2.4 -3.5 -0.5 -12.3 -4.1 -13.9 -5.7 -0.3 -0.3 -1.8 -1.1 -3.5 -1.9 -1.6 -0.7 -3.8 -1.7 -4.7 -2.2 -1 -0.5 -2.2 -0.9 -2.7 -0.9 -0.6 0 -2.1 -1 -3.4 -2.2 -1.2 -1.3 -5.8 -4.8 -10.1 -7.8 -4.2 -3 -9.4 -7 -11.4 -8.7 -2 -1.8 -4 -3.3 -4.4 -3.3 -0.5 0 -1.2 -1 -1.7 -2.3 -0.5 -1.2 -2.9 -3.3 -5.5 -4.5 -2.5 -1.3 -5.4 -3.5 -6.5 -5 -2 -2.8 -4.8 -6.1 -9.1 -11.2 -1.4 -1.5 -2.9 -3.4 -3.5 -4.2 -2.4 -3.1 -13.5 -25.2 -13.5 -26.8 0 -0.5 -0.9 -2.5 -2 -4.5 -1.1 -2 -2 -4.4 -2 -5.5 0 -1.1 -0.4 -2 -1 -2 -0.5 0 -1 -0.6 -1 -1.3 0 -0.7 -1.1 -3.7 -2.5 -6.5 -1.4 -2.9 -2.5 -6.1 -2.5 -7.1 0 -1.1 -0.4 -2.2 -0.9 -2.6 -0.5 -0.3 -1.2 -1.9 -1.6 -3.5 -0.4 -1.7 -1.1 -3 -1.6 -3 -0.5 0 -0.9 -1.1 -0.9 -2.5 0 -1.3 -0.5 -3.7 -1.1 -5.2 -0.6 -1.5 -1.5 -3.7 -2 -4.8 -0.4 -1.1 -1 -6 -1.4 -11 -0.3 -4.9 -0.8 -11.5 -1.1 -14.7 -0.4 -3.4 -0.1 -6.5 0.6 -7.8 0.9 -1.6 0.8 -2.5 -0.1 -3.6 -1.6 -1.9 -3.1 -10 -3.3 -17.2 -0.1 -4.1 0.3 -5.6 1.6 -6.3 1.5 -0.8 1.7 -1.9 1.1 -7 -0.3 -3.7 -0.2 -6.4 0.4 -6.7 1.7 -1.2 6.1 -19.1 7.3 -30.2 0.4 -4.1 1.6 -9.5 2.5 -12 0.9 -2.5 2 -5.4 2.4 -6.5 4.6 -12.2 7.1 -19.9 7.1 -22.2 0 -1.9 0.5 -2.3 2.8 -2.3 9.3 0 20.3 -5.9 23.3 -12.5 2.9 -6.4 2.5 -12.4 -1.3 -18.1 -4.7 -6.8 -8.6 -8.6 -17.5 -8.1 -4 0.2 -7.9 1 -8.8 1.7 -1.3 1.1 -1.5 0.8 -1.5 -2.3 0 -3.1 0.3 -3.5 3.1 -4.1 1.7 -0.3 6 -0.6 9.4 -0.6 l6.3 0 0.7 -4.6 c0.3 -2.5 1.3 -4.8 2.1 -5.1 0.8 -0.3 1.4 -1.1 1.4 -1.7 0 -0.7 1.6 -1.9 3.6 -2.6 2 -0.8 4.4 -2.4 5.3 -3.5 0.9 -1.1 3.9 -3.5 6.8 -5.3 5.2 -3.3 6.3 -4.8 6.3 -8.3 0 -2.3 3.4 -5.9 5.5 -5.9 2.5 0 6.5 -3.1 6.5 -5 0 -1 0.9 -2.2 2 -2.5 1.1 -0.3 2 -1.1 2 -1.6 0 -0.5 1.7 -0.9 3.8 -0.9 2.9 0 4.2 0.6 5.7 2.7 7.8 10.4 12.4 14.3 21.7 18.3 13.9 6 41.1 8.4 84.4 7.7 24.1 -0.4 30.4 -0.8 37.9 -2.5 14.2 -3.2 19.9 -5.7 26.6 -12 8 -7.3 10 -11.5 10.7 -21.9 l0.5 -8.3 2.8 0 c1.8 0 2.9 0.5 2.9 1.4 0 0.9 1.7 1.6 4.6 2.1 2.9 0.4 4.7 1.2 5.1 2.3 0.9 2.4 2.3 3.2 5.9 3.2 1.6 0 4 0.9 5.2 2 1.2 1.1 2.9 2 3.8 2 1 0 1.4 0.5 1 1.5 -1.6 4.2 -2.8 15.6 -2.2 21.4 1.3 14.7 10 36 20.5 50.9 18 25.3 51.9 48 75.8 50.9 4.1 0.4 6 1.3 8.3 3.6 1.7 1.7 3 3.6 3 4.3 0 0.6 0.6 1.7 1.4 2.3 0.8 0.7 1.7 3.3 2 5.9 1 9.2 1.8 12.2 3.2 12.2 2.7 0 1.3 2.1 -5.9 8.9 -3.9 3.8 -8.9 9.7 -11 13.2 -13.7 23.1 -12 51.7 4.4 73.6 3.3 4.4 3.9 6 3.9 10 0 3.2 -0.8 6.2 -2.3 8.9 l-2.4 4 6 -0.4 c5.3 -0.4 5.9 -0.3 5.5 1.4 -0.4 2.2 -2.4 2.8 -13.3 4.4 -4.4 0.7 -9.8 2 -12 3 -5.5 2.4 -13.6 9.1 -17 14 -3.5 5 -2.7 7.4 3.7 11.7 3.6 2.4 4.3 3.4 4.6 6.7 0.2 2.7 -0.3 4.6 -2.1 6.9 -2.8 3.8 -5.7 9.5 -5.7 11.4 0 0.7 -0.7 1.3 -1.5 1.3 -0.8 0 -1.5 0.5 -1.5 1 0 0.6 -1.3 1.8 -3 2.8 -3.4 2.1 -7.4 7.6 -8.4 11.5 -0.5 2.1 -1.3 2.7 -3.2 2.7 -1.6 0 -4.6 1.8 -8.2 4.9 -3.1 2.7 -7.1 5.2 -8.9 5.6 -1.8 0.3 -4.3 1.5 -5.5 2.5 -1.3 1 -3.5 2 -4.8 2.2 -1.6 0.2 -2.6 1 -2.8 2.4 -0.2 1.7 -1.2 2.3 -4.3 2.8 -2.5 0.4 -3.9 1.2 -3.9 2.1 0 1 -1.1 1.5 -3.4 1.5 -1.9 0 -3.8 0.5 -4.1 1 -0.3 0.6 -1.5 1 -2.6 1 -1 0 -1.9 0.4 -1.9 0.8 0 1.1 -6.2 3 -12.4 3.6 -2.7 0.4 -5.4 1.3 -6 2.2 -0.8 1.1 -4.5 1.8 -13.9 2.7 -7 0.6 -12.7 1.5 -12.7 1.9 0 0.4 -0.9 0.8 -2 0.8 -1.1 0 -2 0.5 -2 1 0 0.6 -0.7 1 -1.5 1 -0.8 0 -2.9 0.8 -4.8 1.9 -3 1.7 -6.2 1.9 -29.8 2.2 -14.5 0.2 -28.2 0.3 -30.4 0.1z m-3.9 -24.1 c4.9 -2.2 28.8 -18.1 39.5 -26.2 15.7 -11.9 24.9 -25 28.3 -40.6 0.9 -3.9 2 -15.1 2.6 -25 1.6 -29.4 4.7 -42.1 13.2 -53.3 13.1 -17.3 17.3 -29.8 13.3 -39.3 -3.6 -8.6 -14.7 -15 -26 -15 -8.2 0.1 -11.7 1.8 -22.1 10.8 -10.9 9.4 -15.8 11.9 -22.6 11.3 -9.9 -1 -14.3 -6.8 -22.7 -29.8 -10.6 -29 -19.3 -45.8 -29.1 -55.8 -12.5 -13 -25.2 -6.5 -30.1 15.3 -0.9 3.9 -1.4 12.6 -1.4 25 l0 19 -7.4 -7.7 c-7.2 -7.6 -16.8 -13.8 -21.3 -13.8 -1 0 -1.8 -0.6 -1.8 -1.2 0 -0.8 -0.3 -0.9 -0.8 -0.3 -0.4 0.6 -2 1.5 -3.7 2 -8.5 2.9 -11.1 20.4 -5.5 38.5 1.1 3.6 2 6.6 2 6.6 0 0.1 -2.1 -0.9 -4.7 -2.2 -7.9 -4.1 -15.8 -2.5 -18.3 3.6 -2 4.9 -0.8 18 2.7 28.1 l2.9 8.5 -4.3 -1.5 c-3.9 -1.4 -4.6 -1.4 -7 -0.1 -3.8 2.2 -5.3 5.5 -5.3 12.3 0 6.7 3.6 18.5 7.6 25 6.1 9.7 21.3 30.8 27.5 38.2 8.5 10.1 22.6 23.9 34.9 34 5.2 4.3 15.2 13 22.1 19.4 6.9 6.4 14.5 12.6 17 13.8 5.6 2.9 14.7 3 20.5 0.4z m102.4 -233.3 c4.8 -2.4 9 -5.7 16.1 -12.7 10.6 -10.7 14.9 -17.7 14.9 -24.7 0 -11.1 -17.3 -16.7 -31.3 -10.2 -7.2 3.4 -15.9 10 -22.6 17.4 -10.8 11.8 -12.7 21.7 -5.5 28.9 6.2 6.2 17.1 6.7 28.4 1.3z m-196.2 -32.6 c4.8 -3.1 7.1 -11.1 4.8 -16.6 -4.4 -10.5 -21.6 -9.7 -24.6 1.2 -3.2 12 9.7 22 19.8 15.4z"/>
  <path d="M608 569.2 c0 -0.5 -0.8 -0.8 -1.8 -0.5 -2.3 0.6 -8.2 -3.4 -26.2 -17.9 -21.8 -17.4 -32.5 -29 -49.3 -53.4 -16 -23.3 -19 -34.7 -8.4 -32 1.2 0.3 5.3 3.2 9 6.6 4.9 4.3 7.6 6 9.6 6 5 0 4.6 -2.6 -1.3 -11.6 -14.7 -22.1 -18.4 -36.4 -9.3 -36.4 4.4 0 9.2 3.2 19.2 13 8.5 8.2 10.9 9.7 13.1 7.9 1.9 -1.6 1.7 -4.6 -0.5 -7.7 -3.1 -4.5 -9.8 -18.2 -13.5 -27.7 -4.1 -10.7 -5.4 -17.9 -3.6 -20 3.4 -4.1 10.1 0 26.2 15.6 11.3 11 14.1 12.6 16.8 9.4 0.9 -1.1 0.7 -4.1 -1.1 -14.2 -3.1 -17.8 -3.3 -41 -0.4 -46.8 2.6 -5.1 5.6 -5.7 9.6 -1.9 3.8 3.6 6.6 8.5 12.4 21.4 2.6 5.8 5.7 12.8 6.9 15.5 1.3 2.8 5.1 11.9 8.6 20.3 9.3 22.5 14.8 30.2 21.7 30.2 3.5 -0.1 6.2 -2.2 10.3 -8.5 8.3 -12.6 15.9 -17.5 27.3 -17.5 10.2 0 15.7 3 15.7 8.7 0 1.1 -2.5 5.8 -5.5 10.6 -3 4.8 -6.4 10.9 -7.5 13.7 -2.6 6.6 -5.5 21.4 -7.5 38.5 -1.6 13.2 -4.9 26.4 -8.3 33 -4.1 8 -37.5 37 -49.9 43.3 -4.8 2.5 -12.3 4 -12.3 2.4z"/>
  <path d="M768 596.9 c0 -2.8 0.2 -2.9 4.5 -2.9 3.8 0 4.5 0.3 4.5 2 0 1.1 -0.3 2 -0.7 2 -0.5 0 -2.5 0.4 -4.5 0.9 -3.7 0.9 -3.8 0.8 -3.8 -2z"/>
  <path d="M821.8 306.6 c-22.2 -7.8 -45.2 -31.6 -55.2 -56.8 -2.6 -6.7 -3.1 -10.9 -2 -16.7 0.5 -2.6 1.1 -3.1 3.4 -3.1 1.5 0 4.1 0.7 5.6 1.5 1.6 0.8 3.9 1.5 5.2 1.5 1.2 0 2.5 0.7 2.8 1.5 0.4 0.8 1.7 1.5 3 1.5 1.4 0 3.4 0.9 4.6 2 1.2 1.1 2.8 2 3.5 2 0.7 0 1.3 0.6 1.3 1.4 0 0.8 0.9 1.8 2 2.1 1.1 0.3 2 1 2 1.5 0 0.5 1.9 1.4 4.3 2.1 2.9 0.7 5.6 2.5 8.8 6 2.5 2.7 5.1 4.9 5.7 4.9 0.7 0 1.2 0.7 1.2 1.6 0 2 2.4 4.4 4.4 4.4 0.9 0 1.6 0.7 1.6 1.6 0 1.8 1.8 3.7 4.3 4.7 2.2 0.8 5.7 8.5 6.4 13.9 0.4 2.3 1.1 3.8 1.9 3.8 1 0 1.4 1.4 1.4 5.1 0 4.4 0.4 5.4 3.2 8 1.8 1.6 3.8 2.9 4.5 2.9 2.3 0 1.4 3.7 -0.9 4.4 -5.3 1.4 -16.4 0.5 -23 -1.8z"/>
  <path d="M956.4 275.8 c-5.6 -9.5 -6.1 -10.8 -4.1 -10.8 1.2 0 2.5 2.4 8.3 15.8 2.4 5.3 0.9 3.7 -4.2 -5z"/>
  <path d="M948.6 262.4 c-1.4 -3.7 0.5 -4.9 2.3 -1.5 0.8 1.4 0.7 2 -0.3 2.4 -0.8 0.3 -1.7 -0.1 -2 -0.9z"/>
  <path d="M615 228.3 c-23.4 -1.2 -41.4 -2.7 -45.5 -3.9 -7.6 -2.2 -9.3 -3.9 -10.1 -10.6 l-0.7 -5.8 3.2 0 c1.7 0 3.1 -0.4 3.1 -0.8 0 -1.9 16.4 -6 27.8 -6.9 3.4 -0.3 6.2 -0.9 6.2 -1.4 0 -0.5 3 -0.9 6.6 -0.9 4.7 0 7 -0.5 8.1 -1.6 1.3 -1.2 3.1 -1.5 8 -1.2 4.5 0.3 6.3 0.1 6.3 -0.8 0 -1.6 21.8 -2.4 22.4 -0.9 0.3 0.6 0.5 0.4 0.5 -0.2 0.1 -1.6 18.2 -1.8 19.7 -0.3 0.5 0.5 4.8 1.5 9.4 2.1 4.7 0.6 8.9 1.5 9.4 2 0.6 0.5 1.7 0.9 2.5 0.9 0.9 0.1 2.7 1 4 2 4.4 3.8 1.5 12.7 -5.8 17.7 -10 6.8 -42.7 12.5 -56 9.7 -2.3 -0.5 -3.6 -0.3 -4.2 0.7 -0.6 1 -0.9 1.1 -0.9 0.2 0 -0.7 -1.1 -1.3 -2.5 -1.3 -1.4 0 -2.5 0.4 -2.5 0.8 0 0.8 -1 0.9 -9 0.5z"/>
  <path d="M613.8 179.3 c-1 -0.2 -1.8 -1 -1.8 -1.8 0 -1.6 2.2 -2.5 6.1 -2.5 2.4 0 2.9 0.4 2.9 2.5 0 2.1 -0.5 2.5 -2.7 2.4 -1.6 -0.1 -3.6 -0.3 -4.5 -0.6z"/>
  <path d="M642 177.5 c0 -2.3 0.4 -2.5 4.5 -2.5 3.7 0 4.5 0.3 4.5 1.9 0 1.9 -2.5 3.1 -6.7 3.1 -1.8 0 -2.3 -0.6 -2.3 -2.5z"/>
 </g>
 <g fill="#00a2e8">
  <path d="M600 656.7 c0 -2 0.8 -2.5 5.1 -3.5 2.8 -0.7 6.1 -1.2 7.5 -1.2 1.3 0 2.4 -0.4 2.4 -1 0 -0.5 2 -1 4.5 -1 6.1 0 6 2.4 -0.2 4.4 -5.8 1.8 -16.7 4.6 -18.2 4.6 -0.6 0 -1.1 -1 -1.1 -2.3z"/>
  <path d="M626.6 651.3 c-0.3 -0.4 -0.6 -1.7 -0.6 -3 0 -2.1 0.5 -2.3 4.5 -2.3 4 0 4.5 0.2 3.7 1.6 -1 1.9 -6.7 4.6 -7.6 3.7z"/>
  <path d="M710 646.5 c0 -0.8 -0.4 -1.5 -1 -1.5 -0.5 0 -1 -0.6 -1 -1.3 0 -1.4 -7.7 -7.6 -9.7 -7.8 -2.2 -0.2 -2.8 -0.4 -4.1 -1.2 -0.7 -0.5 -2.1 -0.5 -3.3 -0.2 -1.1 0.4 -2.7 0.1 -3.5 -0.6 -2.8 -2.3 -25.2 2.4 -42.1 8.8 -0.8 0.3 -1.3 -0.4 -1.3 -2 0 -2.6 1.6 -3.7 5.2 -3.7 1.2 0 1.9 -0.2 1.6 -0.5 -0.3 -0.3 -5.2 -1 -10.9 -1.5 -14.3 -1.3 -19.2 -2.1 -20.4 -3.1 -0.5 -0.5 -1.9 -0.9 -3.1 -0.9 -1.3 0 -2.5 -0.4 -2.8 -0.9 -0.3 -0.5 -2.9 -1.1 -5.8 -1.5 -14.7 -1.7 -32.1 -5.5 -34.1 -7.5 -0.6 -0.6 -1.8 -1.1 -2.7 -1.1 -0.9 0 -3.6 -0.9 -5.9 -2.1 -2.4 -1.1 -7.7 -3.2 -11.8 -4.6 -4.2 -1.4 -10.1 -3.8 -13.2 -5.4 -3 -1.6 -6.5 -2.9 -7.7 -2.9 -2.1 0 -3.8 -1 -13.4 -7.9 -2.5 -1.7 -5.6 -3.9 -7 -4.8 -1.4 -1 -4 -3 -5.8 -4.5 -1.8 -1.5 -3.8 -2.8 -4.5 -2.8 -1 0 -10.5 -8 -14.4 -12.2 -8.1 -8.5 -12.3 -13.5 -12.3 -14.6 0 -0.7 -1.1 -2.4 -2.4 -3.7 -1.3 -1.3 -4.5 -5.6 -7.1 -9.4 -2.6 -3.9 -5.1 -7.1 -5.6 -7.1 -0.4 0 -4.2 -6.9 -8.4 -15.2 -4.2 -8.4 -8.3 -16 -9.1 -16.9 -0.8 -0.8 -1.4 -2.5 -1.4 -3.7 0 -1.1 -0.4 -2.4 -1 -2.7 -0.5 -0.3 -1.4 -2.4 -2 -4.5 -0.6 -2.2 -1.5 -4 -2 -4 -0.6 0 -1 -1.6 -1 -3.5 0 -3.4 -1.3 -6.5 -3.6 -9.1 -0.6 -0.7 -1.4 -3.7 -1.8 -6.6 -0.4 -2.9 -1.4 -7.3 -2.3 -9.8 -0.9 -2.5 -1.9 -6.7 -2.4 -9.5 -0.4 -2.7 -1.6 -8 -2.7 -11.6 -1.8 -6.1 -2 -8.8 -1.5 -31 0.2 -13.4 0.9 -26.4 1.4 -28.9 0.5 -2.5 1.4 -7.9 1.8 -12 1.1 -9 3.5 -19.6 5.6 -24.6 0.8 -2 1.5 -5.3 1.5 -7.4 0 -2 0.6 -5 1.4 -6.6 1.5 -3.1 4.3 -9.7 5.6 -12.9 0.4 -1.1 1.3 -4.5 1.9 -7.5 2.4 -11.4 2.9 -13.2 4 -14.3 0.6 -0.6 1.1 -2.4 1.1 -3.9 0 -1.5 0.5 -2.8 1 -2.8 0.6 0 1 -1.3 1 -3 0 -2.7 0.3 -3 3.3 -3 l3.2 0 -0.3 6.4 c-0.3 5 0.1 7.3 1.7 10.5 4.5 8.8 15.9 12.4 25.7 8.2 2.7 -1.1 4.1 -1.5 3 -0.8 -1.9 1.3 -6.4 4.4 -10.5 7.4 -1.8 1.3 -2.6 1.4 -2.9 0.5 -0.7 -2.1 -2.2 -1.3 -2.2 1.1 0 2.3 -2.5 10 -7.1 22.2 -2.8 7.6 -3.6 10.1 -3.2 11.2 0.2 0.6 -0.1 1.4 -0.6 1.8 -0.6 0.3 -1.1 2.7 -1.1 5.3 0 2.6 -0.4 6.2 -1 8.1 -0.5 1.9 -1.2 5.2 -1.6 7.5 -0.3 2.2 -1 4.9 -1.5 5.9 -0.6 1 -1.1 3.2 -1.1 4.8 -0.1 1.6 -0.8 3.4 -1.7 3.8 -1.3 0.8 -1.3 1.3 -0.3 3.6 1.4 3 0.7 9.1 -1.2 10.3 -2.2 1.3 -2.6 4.3 -1 7.3 0.8 1.7 1.2 3.9 0.9 5 -0.4 1.1 0 3 0.9 4.4 1.9 2.8 2.1 7.4 0.5 10.9 -1.3 2.9 0.1 10.2 1.9 9.9 0.8 -0.2 1.2 1.1 1.2 3.5 0 2 0.4 4.3 0.9 5.1 0.5 0.7 0.4 2.5 -0.3 4.2 -0.9 2.5 -1.2 2.7 -1.8 1.2 -0.6 -1.6 -0.7 -1.6 -0.7 0.3 -0.1 1.1 0.4 2.5 0.9 3 0.6 0.6 1.3 2.1 1.5 3.4 0.2 1.3 0.9 2.7 1.5 3 0.7 0.4 0.8 1.8 0.4 3.3 -0.3 1.6 -0.2 2.7 0.4 2.7 0.8 0 2 2.4 2.6 5.2 0 0.3 0.4 1 0.8 1.4 0.5 0.4 0.8 1.6 0.8 2.6 0 1.1 1.3 4.6 2.9 7.8 1.6 3.2 2.7 6.1 2.3 6.4 -0.3 0.3 0 0.6 0.6 0.6 0.7 0 1.2 0.9 1.2 1.9 0 1.1 0.8 3.6 1.9 5.8 1 2.1 2.9 6.3 4.2 9.3 3.3 7.8 6.4 13.2 7.5 13.2 2.5 -0.1 6.8 7 5.9 9.8 -0.3 1 0.2 2.3 1.1 3.1 1.3 1.1 1.8 1.1 2.1 0.2 0.6 -1.7 3.2 0.8 3.6 3.4 0.4 2.4 2.6 6.2 2.7 4.5 0 -1.6 6 1.3 6 3 0 0.6 0.8 2 1.7 3.1 1 1.1 1.2 1.7 0.6 1.3 -0.7 -0.4 -1.3 -0.5 -1.3 -0.2 0 0.3 1.4 1.2 3 2.1 1.7 0.9 3 2.2 3 2.9 0 0.8 1.2 2.2 2.7 3.1 2.6 1.8 2.6 1.7 -0.5 -2 -1.7 -2.2 -3 -4.1 -2.7 -4.3 0.9 -0.9 3.6 0.9 3.3 2 -0.3 0.7 0.6 2.1 1.9 3.1 1.3 1 2.1 2.3 1.7 2.8 -0.3 0.5 0.2 1.6 1 2.5 1.5 1.4 1.6 1.4 1.6 -0.1 0 -1.3 0.7 -1.2 4.2 0.9 2.4 1.4 4.4 3 4.6 3.6 0.6 1.7 -1.3 1.1 -3.6 -1.1 -1.3 -1.1 -2.7 -1.9 -3.2 -1.7 -0.5 0.2 2.5 2.8 6.7 5.8 4.2 3 8.8 6.5 10 7.8 1.3 1.2 2.8 2.2 3.4 2.2 0.5 0 1.8 0.5 2.9 1 1.1 0.6 2.9 1.5 4 2 2.6 1.3 4.3 1.3 3.4 -0.2 -0.4 -0.7 -0.3 -0.8 0.4 -0.4 0.6 0.4 0.9 1.2 0.7 1.9 -0.2 0.7 1.6 2.1 4 3.3 2.4 1.1 4.2 1.7 3.9 1.2 -0.3 -0.4 0.6 -0.8 2 -0.8 2.8 0 4.3 1.5 2.4 2.4 -0.7 0.3 0 0.4 1.5 0.1 1.5 -0.3 4.6 -0.1 6.8 0.5 3.1 0.9 3.9 1.5 3.5 2.8 -0.9 2.8 0.7 4.1 4.6 3.9 4.2 -0.2 4.1 -1.7 -0.2 -1.7 -1.6 0 -3.2 -0.4 -3.5 -1 -0.9 -1.5 1.6 -1.2 8.5 1 7.1 2.3 11.3 2.9 25.3 3.7 5.3 0.3 9.7 0.9 9.7 1.5 0 0.5 0.8 0.4 1.9 -0.2 1.3 -0.7 2.2 -0.7 2.6 0 0.3 0.5 1.7 1 3.1 1 1.3 0 2.4 0.5 2.4 1.2 0 0.9 0.3 0.9 1.2 0 1.5 -1.5 13.8 -1.6 13.8 -0.2 0 0.6 0.7 1 1.5 1 0.8 0 1.5 -0.4 1.5 -1 0 -0.5 1.1 -1 2.5 -1 1.4 0 2.5 0.5 2.5 1 0 1.4 3.7 1.2 4.3 -0.2 0.4 -1 0.6 -1 0.6 0 0.1 1.4 4.7 1.6 5.6 0.2 1.1 -1.8 5.5 -1.2 5.5 0.8 0 1.4 -0.8 1.7 -4 1.7 -2.7 0 -4 0.4 -4 1.3 0 1.1 1.4 1.3 6.3 0.8 3.4 -0.3 6.7 -0.6 7.2 -0.7 0.6 -0.1 1.7 0.2 2.5 0.5 0.9 0.4 2.4 0 3.5 -0.9 1.1 -0.8 1.5 -1.4 0.9 -1.3 -1.2 0.3 -1.4 -0.1 -1.4 -2.2 0 -0.5 1.8 -1 4 -1 2.2 0 4 -0.4 4 -1 0 -0.5 1.7 -0.9 3.7 -0.8 2 0.1 3.9 -0.4 4.1 -1 0.2 -0.7 2.2 -1.2 4.5 -1.1 3.3 0 3.8 0.2 2.2 0.9 -1.5 0.7 -0.9 0.9 2.5 0.8 2.5 -0.1 5 -0.5 5.6 -1 0.7 -0.5 2.5 -0.6 4 -0.4 4.7 0.9 10.6 -0.5 11.1 -2.5 0.3 -1.2 1.4 -1.7 3.4 -1.7 1.5 0.1 3.5 -0.5 4.4 -1.2 1.1 -0.9 1.9 -1 2.8 -0.1 1.4 1.1 7.7 -0.6 7.7 -2.1 0 -0.4 0.9 -0.8 1.9 -0.8 1.1 0 2.3 -0.4 2.6 -1 0.3 -0.5 1.7 -1 3 -1 1.2 0 2.5 -0.6 2.8 -1.4 0.3 -0.8 2.6 -1.8 5 -2.1 4 -0.6 4.6 -1 5.1 -3.7 0.5 -2.4 0.9 -2.8 2.6 -2.3 1.3 0.4 2.9 -0.1 4.6 -1.4 1.3 -1.1 3.9 -2.3 5.7 -2.6 1.8 -0.4 5.8 -2.9 8.9 -5.6 3.6 -3.1 6.6 -4.9 8.2 -4.9 1.9 0 2.7 -0.6 3.2 -2.7 1 -3.9 5 -9.4 8.4 -11.5 1.7 -1 3 -2.2 3 -2.8 0 -0.5 0.8 -1 1.8 -1 1.3 0 1.4 -0.2 0.3 -0.9 -1.1 -0.7 -1 -1.2 0.8 -2.7 1.1 -1 2.1 -2.3 2.1 -2.9 0 -0.6 1.4 -3 3 -5.2 2.7 -3.6 2.9 -4.4 1.9 -6.7 -0.7 -1.4 -1.5 -2.3 -1.9 -2.1 -0.5 0.3 -1 -0.2 -1.4 -1 -0.9 -2.5 1.1 -2.6 6.1 -0.1 5.4 2.6 14.8 5.1 23.6 6.1 l5.7 0.7 0 5.4 c0 4.8 -0.4 5.7 -3.7 9.1 l-3.8 3.8 2.8 0.3 c1.9 0.2 2.7 0.9 2.7 2.2 0 2 -0.7 2.3 -8.5 3.5 -2.1 0.4 -5.7 1.6 -8 2.7 -9.5 4.8 -13.9 9.9 -17.1 20.2 -1.6 5 -2.5 6.3 -7.6 9.9 -3.1 2.3 -5.7 4.8 -5.7 5.4 -0.1 0.7 -1.1 1.5 -2.3 1.8 -4.6 1 -23.5 2.4 -25.6 1.8 -1.3 -0.3 -2.2 -0.1 -2.2 0.6 0 0.6 -2.4 1.7 -5.2 2.6 -7.7 2.2 -15.3 6.9 -17.8 11 -1.2 1.9 -3.5 4.2 -5.1 5 -1.6 0.9 -2.9 2 -2.9 2.5 0 0.6 -1.7 1 -3.8 1 -2.1 0 -4.7 0.6 -5.8 1.4 -1.1 0.8 -3.8 1.8 -6 2.1 -2.1 0.4 -4.7 1.2 -5.7 1.7 -1 0.5 -6 1.7 -11 2.6 -5 1 -9.2 2.3 -9.5 3 -0.2 0.6 0.3 1.2 1.2 1.2 0.9 0 1.6 0.7 1.6 1.5 0 1 1 1.5 2.8 1.5 3.2 0 5.2 1.6 5.2 4.2 0 1 0.7 1.8 1.5 1.8 1 0 1.5 1.1 1.5 3.5 0 1.9 -0.4 3.5 -1 3.5 -0.5 0 -1 -0.7 -1 -1.5z m-62.3 -38.6 c4 -0.1 7 -0.6 6.7 -1 -1 -1.7 -14.6 -1.1 -16.4 0.8 -1.3 1.4 -1.3 1.5 0.5 0.9 1.1 -0.3 5.2 -0.6 9.2 -0.7z m-13.3 -0.8 c0.4 -0.5 -0.3 -0.7 -1.4 -0.4 -1.2 0.3 -2.9 -0.2 -4 -1.2 -1.4 -1.3 -2.3 -1.4 -3.7 -0.6 -1.7 1 -1.6 1 0.4 1.1 1.2 0 2.5 0.5 2.8 1 0.8 1.2 5.2 1.3 5.9 0.1z m53.1 -1.1 c2 -1.1 4.2 -2 5 -2 0.8 0 1.5 -0.4 1.5 -1 0 -0.5 0.9 -1 1.9 -1 1 0 2.2 -0.7 2.5 -1.6 0.3 -0.8 0.2 -1.3 -0.2 -1.2 -0.4 0.2 -1.8 0.9 -3.2 1.5 -8.6 3.7 -12.9 6.1 -12.3 6.6 0.9 0.9 0.8 1 4.8 -1.3z m-187.2 -58.4 c-1 -1.3 -2.1 -2.2 -2.5 -1.9 -0.5 0.2 -0.8 -0.1 -0.8 -0.7 0 -0.6 -0.5 -0.8 -1.1 -0.5 -1.3 0.9 2.8 5.5 4.8 5.5 1.1 0 1 -0.6 -0.4 -2.4z m-17.3 -20.6 c-2.5 -3.5 -3.8 -3.4 -1.8 0.1 2 3.4 3.3 4.8 3.6 3.8 0.2 -0.5 -0.6 -2.3 -1.8 -3.9z m-32.3 -83.7 c-0.3 -1 -0.5 -0.2 -0.5 1.7 0 1.9 0.2 2.7 0.5 1.8 0.2 -1 0.2 -2.6 0 -3.5z"/>
  <path d="M669.8 606.3 c0.6 -0.2 1.2 -1.6 1.2 -3 0 -2.8 2.3 -2.7 2.8 0.2 0.2 0.9 0 1.5 -0.6 1.1 -0.5 -0.3 -1.2 0.1 -1.6 0.9 -0.3 0.8 -1.1 1.5 -1.8 1.4 -1 0 -1 -0.2 0 -0.6z"/>
  <path d="M704.7 597.6 c-0.3 -0.7 -0.1 -1.9 0.4 -2.7 0.8 -1.2 1 -1.2 1.9 0.1 1.3 2 1.2 2.7 -0.4 3.3 -0.8 0.3 -1.7 0 -1.9 -0.7z"/>
  <path d="M721 595.1 c0 -0.5 0.7 -1.4 1.5 -2.1 1.3 -1 1.5 -0.9 1.5 0.9 0 1.2 -0.6 2.1 -1.5 2.1 -0.8 0 -1.5 -0.4 -1.5 -0.9z"/>
  <path d="M726 591 c0.8 -0.5 2.2 -1 3 -1 1.3 0 1.3 0.1 0 1 -0.8 0.5 -2.2 1 -3 1 -1.3 0 -1.3 -0.1 0 -1z"/>
  <path d="M610 590.1 c-1.5 -0.4 0.6 -0.7 5.2 -0.7 4.3 0.1 7 0.4 6 0.8 -2.2 0.8 -8 0.8 -11.2 -0.1z"/>
  <path d="M730.7 589.4 c-0.9 -1 0.4 -3.4 1.9 -3.4 0.8 0 1.4 0.9 1.4 2 0 1.9 -1.9 2.7 -3.3 1.4z"/>
  <path d="M540.6 578.4 c-1.1 -0.7 -1.8 -1.6 -1.5 -1.8 0.2 -0.2 1.3 0.2 2.3 1 1.1 0.7 1.8 1.6 1.5 1.8 -0.2 0.2 -1.3 -0.2 -2.3 -1z"/>
  <path d="M760 577.6 c0 -0.8 0.5 -1.8 1 -2.1 0.6 -0.3 1 0.3 1 1.4 0 1.2 -0.4 2.1 -1 2.1 -0.5 0 -1 -0.6 -1 -1.4z"/>
  <path d="M534.1 574.6 c-1 -1.2 -0.8 -1.3 0.9 -0.9 2.5 0.7 3.7 2.3 1.7 2.3 -0.8 0 -2 -0.6 -2.6 -1.4z"/>
  <path d="M529.2 570.8 c-1.4 -1.4 -1.6 -2.8 -0.3 -2.8 0.9 0 2.4 3 1.8 3.6 -0.2 0.2 -0.9 -0.2 -1.5 -0.8z"/>
  <path d="M775 571 c0 -0.5 0.7 -1 1.5 -1 0.8 0 1.5 0.5 1.5 1 0 0.6 -0.7 1 -1.5 1 -0.8 0 -1.5 -0.4 -1.5 -1z"/>
  <path d="M812 521.7 c0 -0.8 -0.9 -2.2 -2 -3.2 -2.3 -2.1 -2.7 -5.5 -0.5 -5.5 0.8 0 1.5 0.8 1.5 1.9 0 1 0.9 3 2 4.3 1.8 2.4 1.8 3.8 -0.2 3.8 -0.4 0 -0.8 -0.6 -0.8 -1.3z"/>
  <path d="M478 517.6 c-0.7 -2.5 -1 -5 -0.7 -5.8 0.3 -0.7 0.6 -0.1 0.6 1.4 0.1 1.5 0.8 3.3 1.6 4.2 1.7 1.6 1.9 3.2 0.6 4 -0.5 0.3 -1.4 -1.4 -2.1 -3.8z"/>
  <path d="M469.3 499.4 c0.3 -0.4 0.2 -1.5 -0.4 -2.6 -0.6 -1.1 -1.2 -2.9 -1.4 -4 -0.3 -1.2 -1 -2.5 -1.6 -2.9 -0.6 -0.4 -1 -1.2 -0.7 -1.9 0.6 -2 4 1.9 3.5 4 -0.2 0.9 0.2 2.8 0.9 4.1 1.7 3 1.7 3.9 0.2 3.9 -0.6 0 -0.8 -0.3 -0.5 -0.6z"/>
  <path d="M823.2 499.1 c-1 -0.6 -1 -1 0.3 -2.1 1.8 -1.5 4.2 0 3.1 1.9 -0.8 1.3 -1.6 1.4 -3.4 0.2z"/>
  <path d="M833.3 493.9 c-1.6 -1.6 1.1 -4.3 3.7 -3.6 1.3 0.3 1.7 0.1 1.3 -0.9 -0.3 -0.8 0 -1.4 0.6 -1.4 0.5 0 2.2 -2 3.6 -4.5 2.8 -4.6 4.2 -11.5 2.5 -11.5 -0.5 0 -1 -0.5 -1 -1.2 0 -0.6 -1 -2.5 -2.3 -4.2 -1.2 -1.7 -2.8 -4.3 -3.5 -5.8 -1.9 -4.4 1 -3.6 4.1 1.1 1.5 2.2 6 7.8 10.2 12.6 4.1 4.7 7.5 9.5 7.5 10.6 0 1.1 -1.1 3.1 -2.5 4.5 -1.9 1.9 -3.1 2.3 -5.1 1.8 -1.7 -0.4 -2.9 -0.2 -3.5 0.7 -0.6 1.1 -1.6 1.1 -4.8 0.3 -3.6 -1 -4 -0.9 -4.5 0.9 -0.5 1.9 -0.6 1.9 -2.2 0.2 -1.6 -1.6 -1.8 -1.6 -2.4 -0.1 -0.4 1.3 -0.8 1.4 -1.7 0.5z"/>
  <path d="M461.8 481.7 c-0.3 -1.5 -0.2 -2.7 0.3 -2.7 1.3 0 1.7 1.4 0.9 3.5 -0.6 1.7 -0.7 1.6 -1.2 -0.8z"/>
  <path d="M865 449.3 c-7.2 -19.2 -6 -42 3.1 -55.6 3.3 -5 9.1 -9.7 12 -9.7 2.4 0 4.9 12 4.9 23.4 0 10.9 -2.4 26.2 -4.4 28.5 -0.7 0.9 -1.6 3.4 -1.9 5.6 -1.4 10.2 -3.4 13.5 -8.6 13.5 -2.7 0 -3.2 -0.5 -5.1 -5.7z"/>
  <path d="M833.7 452.3 c-0.3 -0.5 -1 -2.5 -1.5 -4.6 -0.9 -3.3 -0.8 -3.8 0.5 -3.5 1.1 0.2 4.1 6.2 4.3 8.6 0 0.6 -2.9 0.1 -3.3 -0.5z"/>
  <path d="M512.2 445.3 c-0.7 -0.2 -1.7 -1.4 -2.3 -2.5 -0.9 -1.7 -0.8 -1.8 0.9 -0.9 1.5 0.8 4.1 4.5 2.9 4 -0.1 0 -0.8 -0.3 -1.5 -0.6z"/>
  <path d="M831.8 442.3 c-2.1 -0.5 -2.4 -2.3 -0.4 -2.3 0.8 0 1.6 0.7 2 1.5 0.3 0.8 0.4 1.4 0.3 1.4 -0.1 -0.1 -1 -0.3 -1.9 -0.6z"/>
  <path d="M451.2 424 c0 -1.9 0.2 -2.7 0.5 -1.7 0.2 0.9 0.2 2.5 0 3.5 -0.3 0.9 -0.5 0.1 -0.5 -1.8z"/>
  <path d="M828 425.5 c0 -0.8 0.7 -1.5 1.5 -1.5 0.8 0 1.5 0.7 1.5 1.5 0 0.8 -0.7 1.5 -1.5 1.5 -0.8 0 -1.5 -0.7 -1.5 -1.5z"/>
  <path d="M526 402 c0 -0.5 0.7 -1 1.5 -1 0.8 0 1.5 0.5 1.5 1 0 0.6 -0.7 1 -1.5 1 -0.8 0 -1.5 -0.4 -1.5 -1z"/>
  <path d="M451.3 393 c0 -2.5 0.2 -3.5 0.4 -2.2 0.2 1.2 0.2 3.2 0 4.5 -0.2 1.2 -0.4 0.2 -0.4 -2.3z"/>
  <path d="M843 385 c-1.2 -0.8 -1.2 -1 0.3 -1.6 2.1 -0.8 3.5 0.2 2.1 1.6 -0.5 0.5 -1.5 0.6 -2.4 0z"/>
  <path d="M567.6 381.5 c-2.1 -3.2 -2.1 -8.5 -0.1 -8.5 1 0 1.5 1 1.6 2.8 0 1.5 0.2 3.9 0.3 5.5 0.1 1.5 0.1 2.7 0 2.7 -0.1 0 -0.9 -1.1 -1.8 -2.5z"/>
  <path d="M848.4 379.6 c-0.5 -0.6 -1.1 -2.6 -1.2 -4.5 -0.2 -2.9 0 -3.3 1.7 -2.8 1 0.2 2.5 0.1 3.2 -0.4 1 -0.6 1.1 -0.9 0.2 -0.9 -0.7 0 -1.3 -0.7 -1.3 -1.5 0 -0.8 0.5 -1.5 1.1 -1.5 0.7 0 0.5 -1 -0.5 -2.5 -1.2 -1.7 -1.5 -3.6 -1.1 -5.8 0.5 -2.4 0.2 -3.7 -0.9 -4.6 -0.9 -0.8 -1.6 -1.9 -1.6 -2.5 -0.1 -2.8 -7.1 -8.6 -10.5 -8.6 -1.1 -0.1 -3.8 -1 -6 -2.1 l-4 -2 3.5 0.6 c17.1 2.9 29.3 3.2 37.1 0.9 3 -0.9 5.8 -2 6.4 -2.5 0.5 -0.5 1.9 -0.9 3.2 -0.9 2.2 0 2.3 0.3 2.3 9.5 l0 9.5 5.5 0 c4.1 0 5.7 0.4 6.2 1.5 0.8 2.2 0.6 2.3 -8.2 4 -7.7 1.5 -18 5.6 -23.4 9.4 -1.5 1.1 -3.6 1.8 -4.7 1.5 -2.7 -0.6 -5.1 1.1 -3.7 2.8 1.3 1.7 -1.8 5 -3.3 3.4z"/>
  <path d="M457.3 369.5 c0 -2.2 0.2 -3 0.4 -1.7 0.2 1.2 0.2 3 0 4 -0.3 0.9 -0.5 -0.1 -0.4 -2.3z"/>
  <path d="M811 333 c-1.3 -0.9 -1.3 -1 0 -1 0.8 0 2.2 0.5 3 1 1.3 0.9 1.3 1 0 1 -0.8 0 -2.2 -0.5 -3 -1z"/>
  <path d="M830 307.5 c0 -1.7 -2.7 -2 -3.2 -0.4 -0.6 1.7 -4.8 0.1 -4.8 -1.8 0 -1.1 -0.6 -1.4 -2.1 -1 -2.2 0.6 -8.3 -1.6 -9.4 -3.4 -1 -1.5 0.2 -2.4 1.7 -1.2 2.4 1.9 15.2 5.5 21.6 6 4.3 0.4 6.2 1 6.2 1.9 0 1 -1.4 1.4 -5 1.4 -3.8 0 -5 -0.4 -5 -1.5z"/>
  <path d="M842.5 307.1 c-1.1 -0.5 -3.2 -2 -4.7 -3.4 -2.6 -2.4 -3.2 -4.4 -3.1 -10.9 0 -1 -0.6 -1.8 -1.4 -1.8 -1.4 0 -1.5 -0.1 -1.9 -4.7 -0.3 -4.5 -4 -12.2 -6.1 -13 -2.5 -1 -4.3 -2.9 -4.3 -4.7 0 -0.9 -0.7 -1.6 -1.6 -1.6 -2 0 -4.4 -2.4 -4.4 -4.4 0 -0.9 -0.6 -1.6 -1.4 -1.6 -0.8 0 -2.9 -1.8 -4.6 -4 -2.9 -3.6 -7.6 -7.1 -9.7 -7 -1.8 0 -4.3 -1.2 -4.3 -2 0 -0.5 -0.9 -1.2 -2 -1.5 -1.1 -0.3 -2 -1.3 -2 -2.1 0 -0.8 -0.6 -1.4 -1.3 -1.4 -0.7 0 -2.3 -1 -3.6 -2.1 -1.7 -1.6 -2.6 -1.8 -3.4 -1 -0.6 0.6 -1.8 1.1 -2.6 1.1 -0.8 0 -1.1 -0.3 -0.8 -0.6 1.2 -1.2 -1.4 -4.4 -3.6 -4.4 -1.2 0 -3.4 -0.7 -4.9 -1.4 -3.2 -1.7 -3.2 -1.7 -2.9 8.7 0.1 3.1 -0.3 5.7 -0.8 5.7 -2.2 0 -4.6 -10.5 -4.6 -20 0 -8.6 0.3 -9.9 2.8 -14.3 3.6 -6.1 9.2 -9.9 15.7 -10.5 3.1 -0.3 5 -0.1 5 0.6 0 0.6 1.8 1.8 4 2.8 2.2 1 4 2.4 4 3.1 0 0.7 1 1.3 2.1 1.3 1.2 0 3.7 1.6 5.5 3.5 1.8 2 4.7 3.8 6.5 4.2 3 0.6 12.2 5.6 15.8 8.6 0.9 0.7 2.7 1.8 4.1 2.4 3.2 1.4 12 9.3 12 10.8 0 1.6 3.3 4.5 5.2 4.5 1.8 0 9.5 13.3 12.2 20.9 2.5 7.3 3.2 19.7 1.6 25.7 -1.6 5.6 -6 11.9 -9.9 13.9 -3.3 1.7 -3.8 1.7 -6.6 0.6z"/>
  <path d="M804.3 297.3 c-1.3 -0.9 -2.3 -1.9 -2.3 -2.4 0 -0.9 4.9 0.9 6.5 2.4 0.7 0.7 0.6 0.8 -0.2 0.3 -0.6 -0.3 -1.3 -0.2 -1.5 0.3 -0.1 0.5 -1.3 0.2 -2.5 -0.6z"/>
  <path d="M795.2 290 c-1.2 -1 -1.8 -2.1 -1.4 -2.4 1 -0.6 4.8 3.1 4.1 3.8 -0.2 0.2 -1.4 -0.4 -2.7 -1.4z"/>
  <path d="M492.2 284.6 c-1.8 -4 -1.5 -6.8 0.4 -3.3 0.8 1.6 1.4 3.6 1.2 4.4 -0.2 1.2 -0.7 0.9 -1.6 -1.1z"/>
  <path d="M785 279.5 c-0.7 -0.9 -1.1 -1.8 -0.8 -2 0.3 -0.3 1.1 0.1 1.8 1 0.7 0.9 1.1 1.8 0.8 2 -0.3 0.3 -1.1 -0.1 -1.8 -1z"/>
  <path d="M488.5 277.9 c-1 -1.5 0.3 -2.5 1.6 -1.2 0.7 0.7 0.7 1.3 0.1 1.7 -0.6 0.3 -1.4 0.1 -1.7 -0.5z"/>
  <path d="M483.8 274.1 c-1.6 -0.9 -2.8 -2.2 -2.8 -2.8 0 -0.7 -0.4 -1.3 -1 -1.3 -0.5 0 -1 0.5 -1 1 0 0.6 -0.7 1 -1.5 1 -0.8 0 -1.5 -0.5 -1.5 -1 0 -0.7 -0.6 -0.7 -2 0 -1.4 0.7 -2 0.7 -2 0 0 -0.5 -0.7 -1 -1.5 -1 -0.8 0 -1.5 0.4 -1.5 1 0 0.5 -0.7 0.7 -1.5 0.4 -0.9 -0.4 -2.3 0.3 -3.3 1.6 -1.5 1.9 -2.4 2.1 -5.1 1.5 l-3.4 -0.7 0.6 -5.5 c0.4 -3.7 1.4 -6.5 3.1 -8.8 1.4 -1.9 2.6 -3.8 2.6 -4.2 0 -0.5 2.9 -3.9 6.4 -7.5 3.5 -3.6 6.7 -7.5 7.1 -8.7 0.3 -1.2 1.5 -2.6 2.6 -3.2 1.1 -0.5 3.6 -3.6 5.6 -6.7 3.9 -6 4.7 -6.9 10.3 -10.6 1.9 -1.3 6.2 -4.6 9.5 -7.4 3.2 -2.8 7.1 -5.7 8.5 -6.4 1.4 -0.6 3.4 -2 4.6 -3 1.1 -1 4.3 -2.1 7.1 -2.5 l5 -0.5 0.7 7.5 c0.8 9.1 2.6 15.5 5.5 19.5 1.5 2.2 1.8 3.2 0.9 3.5 -0.9 0.4 -0.7 0.6 0.3 0.6 2 0.1 4.8 3.1 2.9 3.1 -0.7 0 -2.9 -1.8 -4.9 -4 -2 -2.2 -4.2 -4 -4.8 -4 -0.6 0 -1.3 -0.6 -1.5 -1.2 -0.3 -0.9 -0.9 -0.8 -2.2 0.5 -1 0.9 -2.2 1.7 -2.7 1.7 -0.5 0 -0.9 0.8 -0.9 1.9 0 2 -3.9 5.1 -6.5 5.1 -2.2 0 -5.8 3.9 -5.1 5.6 0.9 2.3 -1.4 5.2 -6.9 8.7 -2.7 1.7 -5.6 3.9 -6.3 4.9 -0.7 1 -3.1 2.6 -5.4 3.6 -3.2 1.5 -3.6 2 -2.3 2.6 1 0.3 2.7 0.3 3.9 0 1.6 -0.5 1.4 -0.1 -0.9 1.9 -2.7 2.2 -3.1 2.3 -4.2 0.8 -1.5 -2.1 -3.9 -0.1 -2.9 2.6 0.6 1.4 0.9 1.5 1.6 0.3 0.5 -0.8 0.7 1.1 0.5 4.9 -0.2 3.4 -0.5 6.4 -0.6 6.5 -0.2 0.2 -1.6 -0.4 -3.1 -1.3z"/>
  <path d="M770.1 257.7 c-2.7 -5.6 -2.8 -9.7 -0.1 -4.6 1.1 2 2 4.3 2.2 5 0.2 0.8 0.7 1.7 1.2 2 0.4 0.4 0.4 0.9 -0.2 1.3 -0.6 0.3 -2 -1.3 -3.1 -3.7z"/>
  <path d="M798 253.5 c-0.7 -0.9 -1.1 -1.7 -0.9 -1.9 0.8 -0.6 6.9 1.5 6.9 2.4 0 1.6 -4.6 1.2 -6 -0.5z"/>
  <path d="M791.5 249 c-1 -1.1 -1.4 -2 -0.8 -2 0.5 0 2 0.9 3.3 2 1.6 1.4 1.9 2 0.8 2 -0.8 0 -2.3 -0.9 -3.3 -2z"/>
  <path d="M741.8 242.3 c-2.1 -0.5 -2.4 -3.3 -0.4 -3.3 0.7 0 1.6 0.9 1.9 2 0.3 1.1 0.4 1.9 0.4 1.9 -0.1 -0.1 -1 -0.3 -1.9 -0.6z"/>
  <path d="M777.3 241.5 c-0.9 -2.4 0.1 -2.7 1.5 -0.5 0.8 1.3 0.8 2 0.2 2 -0.6 0 -1.3 -0.7 -1.7 -1.5z"/>
  <path d="M740 228 c0 -3.4 -0.4 -4.1 -2.4 -4.6 -2 -0.5 -2.3 -0.9 -1.3 -1.9 0.9 -0.9 1.4 -1 1.9 -0.1 0.5 0.7 0.8 0.3 0.8 -0.9 0 -2.2 -3.5 -4.9 -5.1 -3.9 -1.6 0.9 -6.7 -1.5 -7.2 -3.5 -0.5 -2.1 -5.5 -3.4 -7.7 -2 -1.3 0.7 -1.2 0.8 0.3 0.9 0.9 0 1.7 0.6 1.7 1.3 0 0.7 1.6 1.9 3.5 2.7 1.9 0.8 3.5 2 3.5 2.7 0 0.8 1.2 1.3 3 1.3 2 0 3 0.5 3 1.5 0 1.7 -1.6 2 -2.5 0.5 -0.3 -0.5 -1.5 -1 -2.6 -1 -1 0 -2.4 -0.9 -3.1 -2 -0.8 -1.2 -2.4 -2 -4 -2 -1.4 0 -2.9 -0.6 -3.2 -1.2 -0.5 -1 -0.7 -1 -1.2 0 -0.3 0.6 -0.9 1 -1.4 0.7 -0.4 -0.3 -1.1 1.1 -1.4 3 -0.4 1.9 -1.1 3.7 -1.6 4 -0.5 0.3 -0.4 -0.9 0.2 -2.7 1 -3.5 1.2 -31.3 0.2 -38.5 l-0.6 -4.3 4.6 0 c2.5 0 4.6 0.5 4.6 1 0 0.6 0.9 1 1.9 1 1 0 3.9 1.1 6.2 2.5 2.4 1.3 6.8 3.2 9.7 4.1 2.8 0.9 5.2 2.1 5.2 2.5 0 0.5 0.9 0.9 2.1 0.9 2.2 0 7.1 4.3 8.2 7.3 0.4 1.1 -0.7 3.8 -3.3 7.9 -2.2 3.4 -4.6 7.9 -5.2 10.1 -0.7 2.3 -2 4.2 -3 4.5 -1.9 0.5 -2.5 2.2 -0.8 2.2 0.6 0 1 0.5 1 1 0 0.6 -0.7 1 -1.5 1 -1.9 0 -2 1.6 -0.1 2.3 1.8 0.7 0.9 5.7 -1 5.7 -1 0 -1.4 -1.3 -1.4 -4z"/>
  <path d="M595.3 227.3 c-4.8 -0.5 -5.6 -1.8 -1.7 -2.7 3.3 -0.9 6.4 0.1 6.4 2 0 0.8 -0.1 1.3 -0.2 1.2 -0.2 -0.1 -2.2 -0.3 -4.5 -0.5z"/>
  <path d="M644 227 c0 -0.5 0.7 -1 1.5 -1 0.8 0 1.5 0.5 1.5 1 0 0.6 -0.7 1 -1.5 1 -0.8 0 -1.5 -0.4 -1.5 -1z"/>
  <path d="M654.6 226.4 c-0.4 -0.9 0.1 -1.4 1.4 -1.4 2.3 0 2.7 1.5 0.6 2.3 -0.8 0.3 -1.7 -0.1 -2 -0.9z"/>
  <path d="M581.7 226.3 c-4.5 -0.5 -4.5 -2.7 0 -3.1 2.4 -0.2 3.2 0.1 3.6 1.7 0.3 1.2 0.4 2 0.4 1.9 -0.1 -0.1 -1.9 -0.3 -4 -0.5z"/>
  <path d="M570 223.4 c0 -1.2 -0.7 -1.4 -2.8 -0.9 -6.1 1.3 -16.9 -12.7 -18.8 -24.3 -0.3 -2.2 -0.3 -6.2 0 -8.7 0.7 -4.2 1.1 -4.7 5.4 -6.7 5.1 -2.4 5.4 -2.6 9.6 -6.3 4.3 -3.7 6.8 -3.2 12.4 2.4 7.8 7.8 19.2 11.2 43.7 13.2 32.1 2.6 54.9 -2.2 62.3 -13.1 2.3 -3.4 2.4 -5.3 0.7 -10.6 -0.5 -1.5 0 -2.3 2 -3.2 2.9 -1.4 4.8 -0.7 8.1 3 4.3 4.6 5.7 9 6.2 19 0.5 11.2 -0.2 16.8 -2.3 16.8 -1.9 0 -1.9 1.6 0 2.4 2 0.7 0.8 3.6 -1.6 3.6 -2.1 0 -2.6 1.6 -0.6 2.3 2.1 0.7 -1.1 3.6 -3.4 3 -1.9 -0.5 -1.9 -0.7 -0.3 -2.4 0.9 -1.1 1.3 -1.9 0.8 -1.9 -0.5 0 -0.2 -0.5 0.6 -1 1.2 -0.8 1.3 -1.3 0.2 -3 -0.7 -1.1 -0.9 -2 -0.5 -1.9 2.2 0.4 2.4 -0.3 0.8 -2.1 -1 -1.1 -2.6 -2 -3.5 -2 -0.9 0 -2 -0.4 -2.5 -0.9 -0.6 -0.5 -4.7 -1.4 -9.3 -2 -4.6 -0.6 -8.8 -1.3 -9.3 -1.7 -1.8 -1.1 -13.9 -1.4 -13.9 -0.4 0 1.5 -6.7 1.2 -7.3 -0.2 -0.3 -0.7 -0.6 0.2 -0.6 2 -0.1 2.5 -0.5 3.2 -2.2 3.2 -1.1 0 -2.8 -0.7 -3.7 -1.6 -1.2 -1.3 -2.7 -1.5 -6.6 -1 -2.7 0.3 -5.2 1 -5.5 1.5 -0.3 0.4 -2.4 1.1 -4.6 1.4 -2.2 0.2 -5.1 0.8 -6.5 1.2 -2.5 0.8 -2.5 0.8 -0.6 -1.3 1 -1.1 3 -2.3 4.5 -2.5 l2.6 -0.4 -2.7 -0.2 c-1.5 0 -3.3 0.6 -4.2 1.4 -1 1 -3.5 1.5 -8 1.5 -3.7 0 -6.6 0.4 -6.6 1 0 0.6 -0.9 1 -2.1 1 -1.1 0 -1.8 0.4 -1.4 0.9 0.9 1.6 -1.4 2.3 -8.9 2.7 -4.7 0.2 -6.3 0 -4.6 -0.6 2.4 -0.8 2.3 -0.8 -0.8 -0.9 -1.8 -0.1 -3.1 0.3 -2.8 0.8 0.3 0.4 -0.5 0.6 -1.7 0.4 -1.2 -0.2 -4.4 0.6 -7.2 1.7 -2.7 1.2 -3.9 1.8 -2.5 1.5 1.4 -0.3 3.9 -0.8 5.5 -1.1 l3 -0.5 -2.5 1.5 c-1.4 0.8 -3.1 1.5 -3.8 1.6 -1.6 0 -4.2 2.5 -4.2 3.9 0 0.6 -0.4 1.1 -1 1.1 -1.6 0 -1.2 1.8 1 4 1.1 1.1 3.5 2.1 5.3 2.1 1.7 0.1 2.4 0.3 1.5 0.6 -1 0.2 -1.8 0.9 -1.8 1.4 0 0.5 -0.7 0.9 -1.5 0.9 -0.8 0 -1.5 -0.7 -1.5 -1.6z m75 -25 c0 -1.8 -3.4 -3.4 -7.1 -3.4 -5 0 -4.3 1.8 0.9 2.2 1.7 0.1 3.2 0.6 3.2 1 0 0.4 0.7 0.8 1.5 0.8 0.8 0 1.5 -0.3 1.5 -0.6z"/>
  <path d="M682 202.1 c0 -0.5 -2.1 -1.4 -4.7 -1.9 l-4.8 -1.1 4.9 0.5 c2.7 0.3 5.5 1.2 6.3 2 1.2 1.2 1.2 1.4 -0.1 1.4 -0.9 0 -1.6 -0.4 -1.6 -0.9z"/>
  <path d="M649 199 c3.4 -1.1 6 -1.1 3.5 0 -1.1 0.5 -2.9 0.8 -4 0.8 -1.6 0 -1.5 -0.2 0.5 -0.8z"/>
  <path d="M655.3 197.8 c0.2 -0.8 1.8 -1.2 4.3 -1 5.9 0.5 6.1 1.7 0.3 2 -3.7 0.1 -5 -0.1 -4.6 -1z"/>
  <path d="M625.3 180.2 c-4 -0.2 -7.3 -0.6 -7.3 -1.1 0 -0.4 -1.3 -0.6 -3 -0.3 -6.6 1 -22.7 -4.8 -25.6 -9.2 -2.2 -3.5 -0.6 -7.6 3 -7.6 1.3 0 2.6 -0.4 2.8 -0.9 0.2 -0.5 3.3 -1.2 7.1 -1.6 6.3 -0.7 6.7 -0.6 6.7 1.3 0 2 0.5 2.1 11 1.9 8.3 -0.2 11 -0.5 11 -1.5 0 -1 2 -1.2 9.8 -0.6 5.3 0.4 10 1.2 10.4 1.8 0.5 0.8 0.8 0.7 0.8 -0.1 0 -0.8 1.4 -1.3 3.5 -1.3 1.9 0 3.5 0.5 3.5 1 0 0.6 0.6 1 1.3 1 1.9 0 4.7 3.3 4.7 5.4 0 5.2 -10.1 11.4 -16.6 10.1 -2 -0.3 -3.4 -0.2 -3.4 0.4 0 1.1 -9.4 1.7 -19.7 1.3z"/>
 </g>
 <g fill="#0098e0">
  <path d="M614 654.2 c0 -2.3 -3 -5.2 -5.3 -5.2 -2.7 0 -10.5 -4.6 -14 -8.3 -3.8 -4.1 -9.3 -5.6 -14.2 -3.9 -5.1 1.9 -12.4 2.6 -14.8 1.4 -1.2 -0.6 -3.3 -1.3 -4.7 -1.6 -8 -1.6 -12 -2.9 -13.1 -4.2 -0.6 -0.8 -1.8 -1.4 -2.6 -1.4 -0.7 0 -3.5 -1.1 -6.1 -2.4 -2.7 -1.3 -6.6 -2.8 -8.8 -3.2 -2.1 -0.4 -6.7 -2.3 -10.1 -4.3 -3.4 -2 -9.5 -5.5 -13.5 -7.8 -4 -2.4 -9.2 -6.1 -11.6 -8.3 -2.4 -2.2 -4.8 -4 -5.5 -4 -1.5 0 -20.7 -19.3 -20.7 -20.7 0 -0.6 -0.9 -2 -1.9 -3.2 -1.1 -1.3 -2.1 -2.6 -2.3 -3 -0.2 -0.3 -2.4 -2.4 -5.1 -4.5 -4.5 -3.7 -5.9 -5.6 -9.1 -12.2 -0.8 -1.7 -2.2 -3.7 -3.1 -4.4 -0.9 -0.8 -2.9 -3.9 -4.5 -6.9 -1.5 -3.1 -3.7 -6.4 -4.8 -7.4 -2 -1.8 -11.2 -19.5 -11.2 -21.6 0 -0.5 -0.9 -1.5 -2 -2.1 -1.1 -0.6 -2 -2.1 -2 -3.5 0 -1.3 -0.4 -2.7 -1 -3 -0.5 -0.3 -1 -1.9 -1 -3.4 0 -1.5 -0.7 -3.6 -1.5 -4.7 -0.8 -1 -1.5 -2.5 -1.5 -3.2 0 -0.7 -0.9 -3.1 -2 -5.5 -1 -2.3 -2.4 -6 -2.9 -8.2 -0.6 -2.2 -1.8 -6.9 -2.7 -10.5 -0.9 -3.6 -1.9 -7.4 -2.4 -8.5 -1.6 -4.1 -3.1 -10.3 -5 -21.4 -3 -17.2 -2.7 -34.5 1.4 -73.6 1.8 -17.7 2.2 -20.5 5.2 -34 3.1 -13.9 3.8 -16.8 5.9 -23 0.9 -2.7 2.1 -6.8 2.5 -9 1.2 -5.7 3.8 -12.4 6.1 -15.6 1 -1.5 1.9 -3.2 1.9 -3.7 0 -0.6 1.1 -3.2 2.5 -6 1.9 -3.8 4.6 -6.5 12.2 -12.3 24.4 -18.5 44.8 -45 48.5 -63.1 1.2 -5.8 1.4 -6.1 11.3 -14.1 4.5 -3.7 18.2 -12.7 19.2 -12.7 0.5 0 2 -1.1 3.3 -2.5 1.8 -1.9 3.3 -2.5 6.8 -2.5 3.6 0 4.3 0.3 3.8 1.6 -1.6 4.2 -3.5 14.9 -4.1 23.7 -0.6 7.2 -1.1 9.7 -2.1 9.7 -0.8 0 -1.4 -0.9 -1.4 -1.9 0 -1.5 -0.5 -1.8 -2.2 -1.4 -2.9 0.7 -5.9 3.3 -5.2 4.4 0.3 0.5 -0.2 0.6 -1 0.3 -1.9 -0.7 -10.8 5.5 -9.9 7 0.3 0.6 0.3 0.8 -0.1 0.4 -0.5 -0.4 -3 1 -5.6 3 -2.7 2 -6.4 4.8 -8.3 6.2 -1.9 1.4 -4.7 4.4 -6.1 6.8 -3.1 5 -3.2 5.9 -0.8 4.1 1.5 -1.3 1.6 -1.2 0.3 0.3 -0.7 1 -1.6 1.6 -2 1.3 -0.4 -0.2 -2.2 0.9 -3.9 2.5 -2.8 2.6 -3.8 4.6 -3.3 7.3 0.1 0.5 -0.3 0.6 -0.9 0.2 -1.3 -0.8 -8.1 6.1 -7.7 7.8 0.1 0.7 -0.3 1.1 -1 1 -1.5 -0.3 -3.2 1.8 -3.6 4.5 -0.2 1.2 -0.7 2.5 -1.2 2.9 -0.4 0.5 -0.5 0.2 0 -0.6 0.6 -1 0.4 -1.2 -0.4 -0.7 -0.7 0.5 -1 1.5 -0.7 2.3 0.3 0.8 0.2 1.1 -0.3 0.8 -1.2 -0.7 -1.6 0.1 -2.5 4 l-0.6 3 1.5 -2.5 1.4 -2.5 0.1 2.8 c0 1.5 0.5 2.7 1 2.7 2 0 0.9 1.9 -2.3 3.8 -1.7 1.2 -4.3 3.9 -5.7 6.1 -1.4 2.2 -3.1 4.1 -3.7 4.1 -1.5 0 -1.8 3 -0.3 3 1.6 0 2.4 7.1 0.9 8.1 -1.1 0.7 -0.9 0.9 0.6 1 1.3 0 1.5 0.2 0.6 0.6 -0.8 0.3 -2 -0.2 -2.7 -1.1 -1.1 -1.5 -1.4 -1.4 -3.3 1 -2.5 3.1 -2.7 5.4 -0.6 5.4 0.8 0 1.5 0.5 1.5 1 0 0.6 -0.7 1 -1.5 1 -2.8 0 -4.6 6.1 -3.1 11 0.4 1.4 0.4 2 -0.1 1.3 -0.6 -0.8 -1.3 -0.2 -2.2 2 -2.2 5.3 -4.2 10 -5.7 13.1 -0.8 1.6 -1.4 4.6 -1.4 6.6 0 2.1 -0.7 5.5 -1.6 7.5 -2.3 5.7 -5.1 19.4 -4.8 24.4 0.1 2.4 -0.4 5.4 -1.1 6.8 -0.8 1.4 -1.1 3.2 -0.8 3.9 0.3 0.8 0.2 2.2 -0.3 3.1 -1.2 2.8 -2.2 36.9 -1 38 0.2 0.2 0 1.8 -0.5 3.5 -1 3.7 2 17.5 3.1 14.3 0.6 -1.8 0.7 -1.8 1.4 0.1 0.4 1 0.3 2 -0.1 2.1 -0.5 0.2 -0.7 2 -0.5 4.1 0.4 3 0.6 3.3 1.3 1.7 l0.8 -2 0.1 2 c0.1 1.1 0.3 2.8 0.5 3.8 0.3 1.6 0.1 1.6 -1.3 0.5 -1.2 -0.9 -1 -0.2 0.6 2.5 1.2 2.1 1.7 3.5 1.1 3.1 -0.8 -0.4 -0.8 -0.1 -0.1 1.2 0.5 1.1 1.3 4.5 1.7 7.7 0.4 3.2 1.3 6.4 1.9 7 2.3 2.6 3.6 5.8 3.6 9.2 0 1.9 0.4 3.5 0.9 3.5 0.9 0 2.2 2.8 2.7 5.9 0.2 0.7 0.7 1.8 1.3 2.4 0.6 0.6 1.1 2 1.1 3.1 0 1.1 0.6 2.7 1.4 3.5 0.8 0.9 4.9 8.5 9.1 16.9 4.2 8.3 8 15.2 8.4 15.2 0.5 0 3 3.2 5.6 7.1 2.6 3.8 5.8 8.1 7.1 9.4 1.3 1.3 2.4 3 2.4 3.7 0 1.1 4.2 6.1 12.3 14.6 3.9 4.2 13.4 12.2 14.4 12.2 0.7 0 2.8 1.4 4.7 3 2.3 2.1 3.6 2.6 3.9 1.8 0.4 -1 0.7 -1.1 1.8 0 1 0.9 1 1.2 0 1.2 -1.7 0 2.9 3.6 14.5 11.5 2 1.4 4.6 2.5 5.8 2.5 1.2 0 4.7 1.3 7.7 2.9 3.1 1.6 9 4 13.2 5.4 4.1 1.4 9.4 3.5 11.8 4.6 2.3 1.2 5 2.1 5.9 2.1 0.9 0 2.1 0.5 2.7 1.1 1 1 6.1 2.5 11.3 3.4 1.4 0.2 3.8 0.8 5.3 1.4 3.9 1.5 11 1.5 10.1 -0.1 -0.4 -0.7 -0.3 -0.8 0.5 -0.4 0.6 0.4 0.9 1.1 0.6 1.6 -0.6 1 3 2 7.7 2 2 0 4 0.5 4.3 1 0.9 1.5 5.8 1.3 4.9 -0.2 -0.4 -0.8 -0.3 -1 0.2 -0.5 0.5 0.5 0.9 1.4 0.9 2 0 0.6 1.6 1.3 3.5 1.4 1.9 0.2 4.2 0.6 5 1 0.8 0.3 8.8 1.1 17.7 1.8 13.8 0.9 17.5 0.9 25.5 -0.5 5.1 -0.9 10.3 -2.1 11.5 -2.8 1.2 -0.7 3.7 -1.2 5.7 -1.2 1.9 0 3.7 -0.4 4 -0.9 0.3 -0.4 4 -1.4 8.3 -2.1 4.3 -0.6 9.2 -1.8 10.8 -2.4 1.7 -0.7 4.8 -1.6 6.9 -2 2.1 -0.4 4.9 -1.4 6.2 -2.2 1.2 -0.9 3.7 -1.6 5.5 -1.6 1.8 -0.1 3.9 -0.7 4.8 -1.5 0.9 -0.7 3.4 -2.9 5.6 -4.8 3.3 -3 6.5 -4.5 6.5 -3.1 0 0.2 -1.1 2.3 -2.4 4.7 -2.4 4.2 -4.3 10.9 -6.7 23.2 -0.9 5.2 -1.3 5.8 -3.1 5.4 -2.3 -0.6 -14.8 2.4 -19.3 4.7 -4.7 2.3 -8.5 3 -8.5 1.6 0 -3.8 -11.3 -13.2 -13.9 -11.5 -0.5 0.2 -1.1 -0.2 -1.5 -1 -0.7 -1.8 -4.6 -2 -4.6 -0.2 0 0.9 -0.2 0.9 -0.9 -0.1 -0.4 -0.8 -1.1 -1.3 -1.5 -1.3 -0.3 0 -1.3 -0.2 -2.1 -0.5 -0.8 -0.3 -4.1 -0.1 -7.2 0.5 -3.2 0.6 -7.6 1.4 -9.8 1.7 -2.1 0.3 -5.7 1.4 -8 2.4 -2.2 1 -5.4 2.2 -7 2.5 -1.7 0.4 -6.2 2.2 -10.2 4.1 -3.9 1.9 -7.6 3.4 -8.1 3.4 -0.6 0 -1.2 0.6 -1.5 1.4 -0.3 0.9 -1.4 1.2 -2.5 0.9 -1.2 -0.3 -2.2 0.1 -2.5 1.1 -0.4 0.9 -1.3 1.3 -2.1 1 -0.9 -0.3 -2.2 0.1 -3.1 1 -0.9 0.8 -2.2 1.3 -3 1 -0.8 -0.3 -2.2 0.1 -3 1 -2.2 2.1 -3.5 2 -3.5 -0.2z"/>
  <path d="M754.1 603.1 c-1.1 -0.7 -1 -1.1 0.7 -2 1.6 -0.9 2.1 -0.7 2.5 0.9 0.5 2.1 -0.8 2.6 -3.2 1.1z"/>
  <path d="M777.7 596.3 c-1.4 -1.3 -0.6 -2.3 1.8 -2.3 1.6 0 2.5 0.6 2.5 1.5 0 1.5 -3.1 2.1 -4.3 0.8z"/>
  <path d="M786.2 594.9 c-1.1 -1.8 -0.9 -1.9 3.2 -1.9 2.5 0 4.8 0.5 5.1 1.1 0.9 1.4 0.7 1.5 -3.6 2.2 -2.8 0.4 -3.8 0.1 -4.7 -1.4z"/>
  <path d="M798 595 c0 -0.5 -0.9 -1.2 -2 -1.5 -1.1 -0.3 -2 -1.4 -1.9 -2.3 0 -1 0.3 -1.2 0.6 -0.5 0.3 0.8 0.8 0.9 1.6 0.3 0.7 -0.6 3.1 -2.4 5.5 -4.1 2.3 -1.6 4 -3.4 3.7 -3.8 -0.2 -0.5 0.2 -0.8 1.1 -0.7 1.6 0.1 2.8 -1.3 3.8 -4.6 0.7 -2.3 3.6 -1.2 3.6 1.3 0 3.2 -4.1 10.8 -6.9 12.8 -3.3 2.3 -9.1 4.3 -9.1 3.1z"/>
  <path d="M497 574 c-1.4 -1.1 -2.1 -2 -1.7 -2 0.5 0 2 0.9 3.4 2 1.4 1.1 2.2 2 1.7 2 -0.5 0 -2 -0.9 -3.4 -2z"/>
  <path d="M812 573.3 c0.1 -2.1 3.3 -6.3 4.9 -6.3 1.4 0 1.4 0.6 -0.1 4.7 -1.3 3.5 -4.8 4.7 -4.8 1.6z"/>
  <path d="M817.6 566.1 c-1.7 -0.7 -1.5 -1.1 1.8 -4.3 3.4 -3.3 7.1 -4.4 7.1 -2.1 0 0.5 -1.6 2.3 -3.5 4 -2.4 2.1 -4.1 2.8 -5.4 2.4z"/>
  <path d="M862 557.9 c-3.8 -2 -7.3 -2.9 -11.2 -3.1 -3.2 -0.2 -5.8 -0.6 -5.8 -1 0 -0.5 -0.9 -0.8 -2 -0.8 -1.1 0 -2 0.5 -2 1.1 0 0.6 -0.9 0.8 -2.1 0.4 -1.4 -0.5 -2.5 -0.1 -3.3 1 -1 1.4 -1.6 1.5 -3.4 0.6 -1.4 -0.8 -2.2 -0.8 -2.2 -0.1 0 0.5 -0.8 1 -1.7 1 -2.2 0 4.2 -5.9 8 -7.2 1.5 -0.6 2.7 -1.4 2.7 -1.8 0 -0.5 1.8 -2.7 4.1 -5.1 3.2 -3.3 3.9 -4.8 3.7 -7.3 -0.2 -1.7 -0.9 -3.2 -1.5 -3.2 -0.7 -0.1 -2.1 -0.2 -3 -0.3 -1.2 -0.1 -1.4 -0.4 -0.6 -0.9 0.6 -0.4 5.1 -0.4 10 -0.1 4.8 0.4 12.5 0.5 17.1 0.2 l8.2 -0.6 0 4 c0 2.8 -0.9 5.3 -3 8.4 -1.6 2.4 -3 4.8 -3 5.2 0 0.4 -0.8 1.9 -1.7 3.4 -1 1.5 -1.6 4 -1.4 5.9 0.1 1.9 0.1 3.3 -0.1 3.3 -0.2 -0.1 -2.8 -1.5 -5.8 -3z"/>
  <path d="M888.2 476.5 c-9.4 -4.3 -22.2 -19.6 -22.2 -26.5 0 -1.1 -0.4 -2 -1 -2 -0.5 0 -1 -0.9 -1 -2 0 -1.1 0.7 -2 1.5 -2 0.8 0 1.4 0.3 1.3 0.8 -0.1 0.4 0.7 2.1 1.8 3.8 1.8 3 2 3 3.8 1.2 1.1 -1 1.7 -2.1 1.3 -2.4 -0.3 -0.4 0 -1.9 0.8 -3.5 0.8 -1.5 1.5 -4.3 1.5 -6 0 -1.8 0.7 -4.1 1.6 -5.1 0.9 -0.9 1.8 -3.6 2 -5.8 0.1 -2.1 0.5 -4.3 0.7 -4.8 0.3 -0.4 0.8 -5.2 1.1 -10.7 0.5 -7.4 0.2 -11.8 -1 -17.3 l-1.6 -7.4 -3.2 0.6 c-3.1 0.6 -3.1 0.5 0.9 -1.9 6.4 -4 13.1 -5 19.6 -3.1 6.7 1.9 13.6 6.7 14.5 10 0.3 1.4 0.4 4.9 0.1 7.8 -0.2 2.9 -1 11.3 -1.6 18.7 -0.7 7.4 -1.6 14.2 -2.2 15.2 -0.5 1 -0.9 3.4 -0.9 5.5 0 4.1 -2.4 13.2 -4.8 18.2 -0.9 2 -1.5 5.6 -1.4 9.5 0.2 9.6 -0.5 11.7 -3.6 11.6 -1.5 0 -5.1 -1.1 -8 -2.4z"/>
  <path d="M871.2 364.3 c-1.6 -0.6 0.3 -3.3 2.4 -3.3 2.2 0 3.4 -4.4 3.4 -12.6 0 -7.2 -0.1 -7.4 -2.4 -7.4 -1.4 0 -2.8 0.5 -3.1 1 -0.3 0.6 -1.8 1 -3.3 0.9 -2.3 0 -2.1 -0.3 1.6 -1.7 6.7 -2.6 13.4 -8.2 17.1 -14.5 2.5 -4.3 4 -5.7 5.6 -5.7 3 0 5.7 4.6 7.4 12.5 0.7 3.3 1.7 7.3 2.2 8.9 0.5 1.6 0.9 5.3 0.9 8.2 0 4.1 0.4 5.4 1.5 5.4 1 0 1.5 1 1.5 3 l0 3.1 -7.7 -0.6 c-4.3 -0.3 -8.9 -0.8 -10.2 -1.1 -1.4 -0.3 -2.7 0 -3.2 0.7 -0.6 1 -1.3 1 -3.3 0.1 -2.1 -0.9 -2.6 -0.9 -2.6 0.2 0 0.9 -0.7 1.2 -1.9 0.9 -1.1 -0.3 -2.1 0.2 -2.4 1.1 -0.7 1.7 -1.3 1.8 -3.5 0.9z"/>
  <path d="M857 281.5 c0 -1.6 0.6 -2.5 1.5 -2.5 0.9 0 1.5 0.9 1.5 2.5 0 1.6 -0.6 2.5 -1.5 2.5 -0.9 0 -1.5 -0.9 -1.5 -2.5z"/>
  <path d="M855.6 272.9 c-1.2 -7.6 -5.2 -14.6 -12 -21.2 -3.6 -3.4 -6.6 -6.7 -6.6 -7.3 0 -1.4 -8.9 -9.4 -12 -10.7 -1.4 -0.6 -3.2 -1.7 -4.1 -2.4 -3.6 -3 -12.8 -8 -15.8 -8.6 -1.8 -0.4 -4.7 -2.2 -6.5 -4.2 -1.8 -1.9 -4.3 -3.5 -5.5 -3.5 -1.1 0 -2.1 -0.6 -2.1 -1.4 0 -0.8 -1.3 -1.8 -2.8 -2.4 -1.6 -0.5 -3.5 -1.7 -4.3 -2.5 -2.4 -2.3 -9.6 -2.7 -8.3 -0.4 0.4 0.6 0.4 0.9 0 0.5 -0.5 -0.4 -1.9 -0.3 -3.2 0.2 -4.2 1.6 -2.6 -0.7 2.1 -3 21.8 -10.6 61.5 16.4 80 54.5 4.1 8.4 5.4 14.9 3.2 15.8 -1.1 0.4 -1.6 -0.5 -2.1 -3.4z"/>
  <path d="M750.2 204.3 c-1.1 -1.1 -0.9 -1.5 1 -2.2 2 -0.9 2.1 -1 0.4 -1 -1.5 -0.1 -1.7 -0.4 -0.9 -1.2 1.5 -1.5 -3.7 -6.9 -6.6 -6.9 -1.2 0 -2.1 -0.4 -2.1 -0.9 0 -0.4 -2.4 -1.6 -5.2 -2.5 -2.9 -0.9 -7.3 -2.8 -9.7 -4.1 -2.3 -1.4 -5.2 -2.5 -6.2 -2.5 -1 0 -1.9 -0.5 -1.9 -1.1 0 -0.6 -0.8 -0.9 -1.7 -0.7 -1.3 0.2 -1.7 1.1 -1.5 3.1 0.6 5.1 -1.5 2.7 -2.7 -3 -1.5 -7.9 -6.8 -17.1 -11.9 -20.8 -4.5 -3.3 -5.1 -4.5 -2.3 -4.5 1 0 2.1 -0.6 2.4 -1.4 0.8 -2.1 12.3 -3.1 18.8 -1.6 3 0.7 7.4 1.6 9.9 2 5.6 1 13 3.7 15.1 5.6 0.8 0.8 2.2 1.4 3.1 1.4 2.1 0 7.8 3 7.8 4.1 0 0.5 0.8 0.9 1.8 0.9 1 0 2.7 0.7 3.7 1.5 1.1 0.8 3.9 2.7 6.2 4.3 2.3 1.5 5.6 4.1 7.5 5.7 3 2.8 3.9 3 10.7 3 5.8 -0.1 7.9 0.3 9.8 1.8 3.5 2.8 1.5 3.7 -7.7 3.7 -14.6 0 -27.1 5.6 -34 15.1 -2.1 3 -2.8 3.4 -3.8 2.2z"/>
  <path d="M548.1 192.9 c-0.1 -3.1 5 -21.7 7.7 -27.9 1.1 -2.5 3 -5.5 4.3 -6.7 7 -6.5 19.9 -7.1 19.9 -1 0 1.3 -1.7 4.1 -4 6.5 -5.1 5.3 -5.4 9.5 -1 14.5 1.6 1.9 2.7 3.7 2.3 4.1 -0.3 0.3 0.2 0.6 1.3 0.6 1 0.1 3 0.8 4.4 1.6 1.7 1.1 1.9 1.3 0.5 0.9 -1.1 -0.4 -2.8 -0.8 -3.7 -1 -2 -0.4 -8 -4.5 -9.1 -6.2 -1 -1.6 -4 -0.4 -3.3 1.3 0.3 0.8 0.2 1.3 -0.2 1.3 -1.7 -0.3 -3.1 0.2 -4.4 1.4 -0.7 0.6 -3.8 2.5 -6.9 4 -4.4 2.2 -5.9 3.5 -6.7 6 -0.9 3 -1 3 -1.1 0.6z"/>
  <path d="M695 179 c0 -0.5 0.7 -1 1.5 -1 0.8 0 1.5 0.5 1.5 1 0 0.6 -0.7 1 -1.5 1 -0.8 0 -1.5 -0.4 -1.5 -1z"/>
  <path d="M612 177.5 c0 -0.8 0.9 -1.5 2 -1.5 1.1 0 2 0.7 2 1.5 0 0.8 -0.9 1.5 -2 1.5 -1.1 0 -2 -0.7 -2 -1.5z"/>
  <path d="M607 176.5 c0 -0.8 0.5 -1.5 1 -1.5 0.6 0 1 0.7 1 1.5 0 0.8 -0.4 1.5 -1 1.5 -0.5 0 -1 -0.7 -1 -1.5z"/>
  <path d="M658.7 174.6 c-0.7 -1.8 1.8 -4.6 4.2 -4.6 2 0 2.1 0.1 0.6 2.4 -1.9 2.9 -4.2 3.9 -4.8 2.2z"/>
  <path d="M683.6 171.9 c-0.3 -1.8 -2.7 -5 -5.8 -8 -5 -4.8 -5.1 -5 -2.3 -4.4 5.9 1.3 8.5 2.4 13 5.5 7.3 5 10.2 11.2 3.7 8 -1.5 -0.8 -3 -1.5 -3.3 -1.7 -0.3 -0.1 -1.5 0.6 -2.6 1.7 -2.1 1.8 -2.1 1.8 -2.7 -1.1z"/>
  <path d="M596 172 c-0.8 -0.5 -2.3 -0.7 -3.3 -0.4 -1.4 0.4 -1.7 0.1 -1.5 -1.3 0.2 -1 -0.2 -1.7 -0.9 -1.5 -1.3 0.2 -1.7 -1 -1.3 -3.8 0.6 -4.9 10.4 -9.5 23.7 -11.1 18.2 -2.3 46.3 4.4 51.2 12 1.5 2.4 1.5 2.4 -1.4 1.6 -1.7 -0.5 -9.5 -1 -17.5 -1.1 -43.5 -0.5 -50 -0.3 -50 1.5 0 0.4 0.9 1.7 2 2.9 2.1 2.3 1.6 2.9 -1 1.2z m-2 -4.4 c0 -0.8 0.6 -1.7 1.3 -1.9 0.6 -0.3 0.2 -0.6 -0.9 -0.6 -2.1 -0.1 -3.9 2.1 -2.7 3.3 1.1 1.1 2.3 0.6 2.3 -0.8z"/>
  <path d="M665.8 145.8 c-2.7 -0.7 -3.8 -1.5 -3.8 -2.9 0 -2.1 2.2 -2.4 7.9 -1.3 2.4 0.5 3.1 1.2 3.1 3 0 2.7 -1.1 2.8 -7.2 1.2z"/>
 </g>
 <g fill="#008cd7">
  <path d="M710.2 662 c0.6 -1.9 0.8 -6.2 0.5 -10.6 -0.4 -5.3 -0.2 -7.4 0.6 -7.4 0.7 0 2.6 -0.7 4.2 -1.6 3.6 -1.9 16.1 -5.5 19.2 -5.6 1.6 0 2.4 -0.8 2.8 -2.9 0.7 -3 3.5 -4.1 3.5 -1.4 0 0.8 -0.7 1.5 -1.5 1.5 -1.8 0 -2 1.7 -0.3 2.2 1.3 0.5 0.6 6.2 -2.2 19.5 l-1.1 5.1 -4.7 0.5 c-2.6 0.3 -6.5 1 -8.7 1.7 -2.2 0.7 -6.1 1.4 -8.7 1.7 l-4.8 0.5 1.2 -3.2z"/>
  <path d="M551.7 661.3 c-2.6 -0.7 -1.7 -3.6 1.3 -4.4 2.3 -0.6 2.4 -0.7 0.5 -1.4 -1.1 -0.4 -2.9 -1.1 -4 -1.5 -1.1 -0.5 -4.7 -1.6 -8 -2.6 -12.7 -3.5 -36 -15.1 -57 -28.2 -4.2 -2.7 -13.1 -10.3 -22 -18.9 -3 -2.8 -6.2 -5.7 -7.2 -6.5 -1 -0.7 -3.8 -3.9 -6.2 -7 -2.4 -3.2 -4.7 -5.8 -5.1 -5.8 -0.5 0 -1.2 -1.2 -1.8 -2.7 -0.5 -1.6 -3.7 -6.2 -7.1 -10.3 -3.3 -4.1 -6.1 -8.1 -6.1 -8.7 0 -0.7 -0.4 -1.3 -1 -1.3 -0.5 0 -1 -0.5 -1 -1.2 0 -0.7 -1.1 -2.8 -2.3 -4.7 -10.3 -15.6 -23.2 -39.8 -24.2 -45.4 -0.4 -2.1 -1.6 -4.8 -2.7 -6.2 -1 -1.4 -2.8 -5.5 -3.9 -9.2 -3.8 -12.6 -5.9 -19.8 -7.4 -25.8 -0.9 -3.3 -2 -6.9 -2.5 -8 -2.3 -5.2 -3.5 -18 -3.3 -36 0.1 -18.7 0.2 -19.1 3.3 -27.4 3.7 -9.9 6.4 -26.5 5.5 -33.6 -0.3 -2.7 -1.3 -7.1 -2.2 -9.6 -1.7 -4.8 -1.5 -7.1 2.1 -27.9 1.5 -8.9 5.2 -22.7 6.5 -24.5 0.4 -0.5 1.3 -2.8 1.9 -5 1.1 -3.8 2.1 -4.7 14.4 -12.3 17.2 -10.7 28.6 -18.9 40.6 -29.2 l9.7 -8.2 -8 7.7 c-4.4 4.2 -10.6 10.2 -13.8 13.3 -5.1 4.9 -11.7 15.3 -11.7 18.4 0 0.5 -0.9 2.2 -1.9 3.7 -2.3 3.3 -5 10 -6.1 15.6 -0.4 2.2 -1.7 6.7 -2.8 10 -5.4 16.5 -9.4 38 -10.7 57.5 -0.4 5.7 -0.9 10.9 -1.3 11.4 -0.7 1.2 -0.9 4.2 -1.5 26.1 -0.5 16.7 0.2 27.1 2.2 32 0.5 1.1 0.9 3.6 1 5.5 0.1 3.2 1.2 7.5 3.1 12.5 0.5 1.1 1.5 4.9 2.4 8.5 0.9 3.6 2.1 8.3 2.7 10.5 0.5 2.2 1.9 5.9 2.9 8.2 1.1 2.4 2 4.8 2 5.5 0 0.7 0.7 2.2 1.5 3.2 0.8 1.1 1.5 3.2 1.5 4.7 0 1.5 0.5 3.1 1 3.4 0.6 0.3 1 1.7 1 3 0 1.4 0.9 2.9 2 3.5 1.1 0.6 2 1.6 2 2.1 0 2.1 9.2 19.8 11.2 21.6 1.1 1 3.3 4.3 4.8 7.4 1.6 3 3.6 6.1 4.5 6.9 0.9 0.7 2.3 2.7 3.1 4.4 3.2 6.6 4.6 8.5 9.1 12.2 2.7 2.1 4.9 4.2 5.1 4.5 0.2 0.4 1.2 1.7 2.3 3 1 1.2 1.9 2.6 1.9 3.2 0 1.4 19.2 20.7 20.7 20.7 0.7 0 3.1 1.8 5.5 4 2.4 2.2 7.6 5.9 11.6 8.3 4 2.3 10.1 5.8 13.5 7.8 3.4 2 8 3.9 10.1 4.3 2.2 0.4 6.1 1.9 8.8 3.2 2.6 1.3 5.4 2.4 6.1 2.4 0.8 0 2 0.6 2.6 1.4 1.1 1.4 6.1 2.9 13.6 4.3 1.7 0.3 3.5 0.9 4.1 1.4 0.6 0.5 3.5 0.2 6.8 -0.6 3.2 -0.8 6.2 -1.3 6.7 -0.9 1.3 0.8 1.1 2.4 -0.4 2.4 -0.7 0 -2.9 1.4 -4.9 3 -5.8 4.8 -6.4 13.8 -1.3 19.8 l2.4 2.9 -6.9 0.2 c-4.9 0.1 -7.1 -0.2 -7.7 -1.2 -0.4 -0.8 -1.8 -1.6 -3 -1.9 -1.8 -0.5 -2.3 -0.2 -2.3 1.3 0 1.9 -2.1 2.3 -6.3 1.2z"/>
  <path d="M541.8 660.3 c-1 -0.2 -1.8 -1.3 -1.8 -2.4 0 -1.5 0.7 -1.9 3.5 -1.9 3.1 0 3.5 0.3 3.5 2.5 0 2.5 -1.1 2.9 -5.2 1.8z"/>
  <path d="M599.7 655.7 c0.8 -5 -1.4 -11.2 -5.3 -15.3 -4.5 -4.9 -2.9 -6.5 1.9 -1.9 2 1.9 4.4 3.5 5.4 3.5 1 0 3.2 0.9 4.8 2 1.7 1.1 4 2 5.1 2 1.2 0 2.7 0.7 3.4 1.5 0.7 0.9 2.9 1.5 5.2 1.5 3.5 0 3.9 0.2 2.8 1.5 -0.7 0.8 -1.9 1.5 -2.6 1.5 -0.8 0 -2.2 0.9 -3.1 2 -1.2 1.3 -2.4 1.8 -4 1.4 -1.3 -0.4 -2.3 -0.2 -2.3 0.4 0 0.6 -0.9 0.8 -2 0.5 -1.1 -0.3 -2 -0.1 -2 0.5 0 0.6 -0.9 0.8 -2 0.5 -1.1 -0.3 -2 0 -2 0.6 0 0.6 -0.9 1.1 -1.9 1.1 -1.7 0 -1.9 -0.5 -1.4 -3.3z"/>
  <path d="M584 634.5 c0 -1.6 1.2 -1.8 4.8 -0.8 1.8 0.4 2 0.8 1 1.4 -2.2 1.4 -5.8 1 -5.8 -0.6z"/>
  <path d="M875.6 575.9 c-0.4 -2.3 -1.4 -5.5 -2.2 -7.3 -2 -3.9 -8.4 -10.6 -10.1 -10.6 -2.5 0 -2.4 -2.7 0 -5.4 1.4 -1.5 3.3 -4.3 4.2 -6.2 0.9 -2 2.8 -5.2 4.1 -7.1 2.6 -3.9 3.1 -6.9 1.2 -7.6 -0.7 -0.2 1.2 -0.7 4.2 -1.2 8.2 -1.1 17.4 -3.3 23.2 -5.6 2.8 -1.1 5.3 -1.7 5.6 -1.4 1.1 1.1 -2.2 17.6 -4.1 20.8 -2.7 4.2 -6.5 11.2 -9 16.2 -1.8 3.7 -8.4 12.6 -9.8 13.3 -0.3 0.1 -0.3 1.6 -0.1 3.2 0.4 2.8 0.2 3 -3.1 3 -3.3 0 -3.5 -0.2 -4.1 -4.1z"/>
  <path d="M855.8 555.3 c-1.9 -0.5 -2.4 -1.8 -1 -2.7 1.5 -0.9 5.2 0.6 5.2 2 0 1.4 -1 1.6 -4.2 0.7z"/>
  <path d="M858.1 532.6 c0.8 -0.8 9.8 -1 10.5 -0.3 0.4 0.4 -1.9 0.7 -5.1 0.7 -3.2 0 -5.6 -0.2 -5.4 -0.4z"/>
  <path d="M896 477.5 c0 -1.8 -1.6 -2 -2.4 -0.2 -0.5 0.9 -0.7 0.9 -1.2 0 -0.3 -0.7 -1.1 -1 -1.9 -0.7 -1.5 0.6 -6.5 -2.3 -6.5 -3.7 0 -0.5 1.2 -0.4 2.7 0.2 1.5 0.5 3.7 0.8 4.9 0.5 1.3 -0.4 2.4 -0.1 2.7 0.7 1 2.8 1.9 -0.6 2.1 -8.2 0.2 -4.8 0.9 -9.4 1.8 -11.3 2.8 -5.7 4.8 -14.4 4.2 -17.5 -0.4 -2 0 -3.9 1 -5.4 1 -1.6 1.2 -2.9 0.6 -3.9 -0.5 -0.8 -0.4 -2.2 0.2 -3.3 0.5 -1.1 1.2 -4.9 1.4 -8.5 0.2 -3.6 0.8 -9 1.5 -12 1.4 -6.9 0.5 -11.9 -2.9 -15.4 -2.1 -2.3 -2.3 -2.8 -0.8 -2.8 0.9 0 1.4 0.5 1.1 1 -0.3 0.6 0.3 1 1.4 1 4.6 0 15.2 16.5 18.7 29 2.4 8.7 2.9 27.2 1 35.2 -3 13 -8.5 21 -17 24.9 -5.1 2.3 -12.6 2.6 -12.6 0.4z"/>
  <path d="M921.3 368.4 c-2.9 -1.7 -8.2 -4 -11.8 -5 -4.2 -1.2 -6.5 -2.4 -6.6 -3.4 0 -1 -0.2 -1.1 -0.6 -0.2 -0.6 1.4 -11.3 1.7 -11.3 0.2 0 -0.5 1.7 -1.2 3.8 -1.6 2 -0.4 4 -1.2 4.4 -1.8 1.1 -1.5 1 -7.7 -0.1 -11.2 -0.5 -1.6 -1.5 -5.6 -2.2 -8.9 -1.3 -6.1 -4.4 -12.5 -6 -12.5 -0.4 0 -1.3 0.9 -1.9 2.1 -0.7 1.1 -1.4 1.8 -1.7 1.5 -0.3 -0.3 -0.1 -1.1 0.4 -1.8 0.6 -0.7 2.3 -5.1 3.8 -9.8 2.2 -6.8 2.8 -10.6 2.9 -18.7 0 -5.7 0.5 -10.3 0.9 -10.3 1.2 0 17.2 33 22.7 47 5.9 15.1 11 30.4 11 33.2 0 4.2 -2.2 4.6 -7.7 1.2z"/>
  <path d="M484.6 216.5 c0.3 -1.1 1.8 -5.1 3.2 -9 3.2 -8.9 3.7 -21.5 1 -25.8 -2.9 -4.3 -2.2 -6.1 4.2 -11.7 6.2 -5.4 24.4 -18 25.9 -18 0.5 0 2.3 -1.1 3.9 -2.5 1.6 -1.3 4 -2.9 5.3 -3.5 1.3 -0.6 3.5 -1.7 4.9 -2.5 1.4 -0.8 3.8 -1.5 5.3 -1.5 1.5 0 4.7 -0.9 6.9 -2 2.3 -1.1 4.8 -2 5.5 -2 0.8 0 1.6 -0.7 1.9 -1.5 0.4 -0.8 1.2 -1.5 2 -1.5 0.7 0 1.7 -0.6 2.1 -1.3 2.8 -4.4 18.2 -6.1 55.3 -6.1 31.5 0 43.1 1 66.8 5.8 33.7 7 78.3 25.3 109 44.9 7.4 4.7 13.7 8.8 14 9.2 0.3 0.3 -1.4 0.3 -3.8 -0.1 -2.5 -0.4 -4.7 -1 -5 -1.3 -0.3 -0.3 -1.8 -0.7 -3.5 -0.7 -1.6 -0.1 -4 -0.5 -5.2 -0.9 -1.8 -0.6 -2.3 -0.3 -2.3 1 0 1.7 -1.1 1.7 -5.2 0 -1.3 -0.5 -1.8 -0.2 -1.8 1.1 0 1.6 -0.2 1.6 -1 0.4 -0.6 -0.9 -0.5 -1.7 0.2 -2.1 1.3 -0.8 -2.7 -4.6 -9.6 -9.1 -2.2 -1.6 -5 -3.5 -6.1 -4.3 -1 -0.8 -2.7 -1.5 -3.7 -1.5 -1 0 -1.8 -0.4 -1.8 -0.9 0 -1.1 -5.7 -4.1 -7.8 -4.1 -0.9 0 -2.3 -0.6 -3.1 -1.4 -2.1 -1.9 -9.5 -4.6 -15.6 -5.7 -2.7 -0.4 -6.8 -1.3 -9 -1.8 -8.7 -2.2 -17 1.3 -12.4 5.2 1 0.9 1.9 2.2 1.9 2.9 0 0.6 -1.5 -0.2 -3.2 -1.9 -4.7 -4.4 -12.8 -8.6 -23.8 -12.4 -5.2 -1.8 -9.6 -3.6 -9.8 -4 -0.2 -0.4 -1.2 -0.5 -2.2 -0.2 -1.1 0.3 -2 0 -2 -0.6 0 -0.5 -0.6 -0.8 -1.3 -0.5 -0.7 0.2 -6.4 -0.4 -12.7 -1.5 -19.3 -3.3 -45.4 -4.6 -63.2 -3.2 -23.9 1.8 -35.8 5 -43.6 11.6 -3 2.5 -11.2 17.3 -11.2 20.1 0 0.8 -1 1.9 -2.2 2.4 -1.3 0.5 -1.7 0.9 -1 0.9 1.7 0.1 1.5 2.1 -0.3 2.1 -0.8 0 -1.5 0.5 -1.5 1 0 0.6 0.5 1 1 1 0.6 0 1 0.5 1 1 0 0.6 -0.7 1 -1.6 1 -1.3 0 -1.5 -0.7 -0.9 -3.7 l0.7 -3.8 -2.9 2.8 c-1.6 1.5 -3.3 2.7 -3.7 2.7 -1.7 0 -18.2 11.7 -24.7 17.4 -1.4 1.2 -3.5 2.9 -4.6 3.7 -1.1 0.8 -2.5 3.1 -3.2 5.1 -0.7 2 -2.3 5.8 -3.7 8.5 -1.4 2.6 -2.2 3.9 -1.8 2.8z"/>
  <path d="M557 162.3 c0 -1.2 4.8 -5.7 7.7 -7.2 2.7 -1.4 8.3 -2.1 8.3 -1.1 0 0.4 -1.9 1 -4.2 1.3 -2.6 0.3 -4.9 1.4 -6.2 2.9 -2.8 3.2 -5.6 5.3 -5.6 4.1z"/>
  <path d="M674.9 161 l-2.4 -2 3.5 0.7 c4.3 0.7 4.4 0.8 2.7 2.2 -1.1 0.9 -2 0.7 -3.8 -0.9z"/>
 </g>
 <g fill="#007ccb">
  <path d="M697 687.1 c0 -0.6 1.9 -3.8 4.1 -7.2 2.3 -3.3 5.7 -9.5 7.5 -13.7 1.9 -4.2 3.4 -6.9 3.4 -5.8 0 1.4 0.5 1.7 2.3 1.1 6.2 -1.9 9.6 -2.7 13.6 -3.4 2.3 -0.5 4.6 -1.3 5 -1.9 0.4 -0.7 1.2 -0.8 2 -0.2 1.2 0.7 1.2 2.3 0.2 10.2 -2.3 17.8 -2 16.8 -5 16.8 -1.4 0 -5.8 0.9 -9.6 2 -8.7 2.5 -23.5 3.8 -23.5 2.1z"/>
  <path d="M763.5 668.8 c0.4 -1.3 2.6 -5.9 4.8 -10.2 6.4 -12.4 21.9 -27.9 37.2 -37.1 12.3 -7.4 29.6 -10.6 38 -7.1 3.6 1.5 4.7 3.6 2 3.6 -0.9 0 -2 1.1 -2.4 2.4 -0.9 2.2 -11 11.6 -12.5 11.6 -0.5 0 -2 1.1 -3.4 2.4 -7.2 6.5 -16.3 13.6 -17.3 13.6 -0.7 0 -3.1 1.6 -5.5 3.5 -2.3 1.9 -4.7 3.5 -5.3 3.5 -0.6 0 -1.1 0.4 -1.1 0.9 0 0.5 -1 1.3 -2.2 1.6 -1.3 0.4 -3.2 1.5 -4.3 2.4 -2.3 2 -12.8 6.1 -15.5 6.1 -1 0 -3.2 1.1 -4.8 2.5 -1.7 1.4 -4.2 2.5 -5.7 2.5 -2.3 0 -2.5 -0.3 -2 -2.2z"/>
  <path d="M555 661.3 c0 -0.5 -2.5 -0.6 -5.5 -0.5 -3.2 0.2 -5.5 0 -5.5 -0.6 0 -0.6 -0.9 -0.8 -2 -0.5 -2.5 0.7 -16.2 -1.7 -38.5 -6.7 -27.6 -6.2 -26.7 -5.9 -26.2 -8.6 0.4 -2.4 -2.6 -6 -7.2 -8.4 -3.7 -1.9 -11.1 -7.7 -17.4 -13.7 -5.8 -5.6 -5.8 -5.6 -7.2 -14.2 -3 -18.2 -7.7 -29.3 -16.4 -38.4 -5.6 -5.9 -22 -17.6 -31.3 -22.3 -2.7 -1.4 -4.8 -3 -4.5 -3.7 0.2 -0.6 -2.3 -6.3 -5.6 -12.6 -6.2 -12 -10.9 -22.6 -13.4 -30.1 -0.8 -2.5 -3.2 -8.8 -5.3 -14 -2.2 -5.2 -4.4 -11.5 -5 -14 -0.6 -2.5 -1.5 -5.4 -1.9 -6.5 -0.5 -1.1 -1.4 -4 -2.1 -6.5 -0.6 -2.5 -1.6 -5.9 -2.1 -7.6 -0.5 -1.7 -0.9 -5.4 -0.9 -8.3 0 -5.1 0.2 -5.6 6.1 -11.9 13.4 -14.6 22 -31.3 24.9 -48.4 0.7 -3.8 1.4 -6.8 1.7 -6.8 0.8 0 -0.4 7.1 -2.7 16.5 -3.1 12.7 -4.6 41.7 -2.7 51 0.3 1.1 0.8 4.5 1.2 7.5 0.4 3 1.1 6.1 1.6 7 0.5 0.8 1.5 4.2 2.4 7.5 1.5 6 3.5 13 7.4 25.8 1.1 3.7 2.9 7.8 3.9 9.2 1.1 1.4 2.3 4.1 2.7 6.2 1 5.6 13.9 29.8 24.2 45.4 1.2 1.9 2.3 4 2.3 4.7 0 0.7 0.5 1.2 1 1.2 0.6 0 1 0.6 1 1.3 0 0.6 2.8 4.6 6.1 8.7 3.4 4.1 6.6 8.7 7.1 10.3 0.6 1.5 1.3 2.7 1.8 2.7 0.4 0 2.7 2.6 5.1 5.8 2.4 3.1 5.2 6.3 6.2 7 1 0.8 4.2 3.7 7.2 6.5 8.9 8.6 17.8 16.2 22 18.9 21 13.1 44.3 24.7 57 28.2 6.4 1.8 8.9 2.8 14.6 5.7 2 1.1 4.3 1.9 5 1.9 0.8 0 2 0.9 2.7 2 0.7 1.1 1.9 2 2.7 2 0.8 0 1.5 0.5 1.5 1 0 0.6 -3.3 1 -8 1 -4.4 0 -8 -0.3 -8 -0.7z"/>
  <path d="M573.2 660.8 c0.4 -0.8 0.1 -2.1 -0.5 -2.7 -0.8 -0.8 -0.8 -1.1 0 -1.1 2.2 0 3.2 2.4 1.5 4 -1.4 1.3 -1.5 1.2 -1 -0.2z"/>
  <path d="M570.5 654.9 c-0.4 -0.6 -0.5 -1.3 -0.2 -1.6 0.7 -0.7 2.7 0.6 2.7 1.8 0 1.2 -1.7 1.2 -2.5 -0.2z"/>
  <path d="M734 653 c0 -0.5 0.7 -1 1.5 -1 0.8 0 1.5 0.5 1.5 1 0 0.6 -0.7 1 -1.5 1 -0.8 0 -1.5 -0.4 -1.5 -1z"/>
  <path d="M900.6 589.4 c-3.4 -4.1 -10.7 -8.1 -16.5 -9 -2.3 -0.4 -4.1 -1 -4.1 -1.4 0 -0.5 -0.9 -0.6 -2 -0.3 -1.3 0.3 -2 0 -2 -0.8 -0.1 -0.8 -0.3 -3.2 -0.5 -5.4 -0.4 -3.6 -0.4 -3.7 0.6 -1.3 1 2.5 1.1 2.6 2.7 1 3.8 -3.8 9.1 -10.9 10.9 -14.7 2.8 -5.6 6.6 -12.5 8.7 -15.8 1 -1.5 2.4 -5.6 3.1 -9.2 1 -5.6 1 -6.5 -0.3 -6.7 -0.9 -0.2 2.2 -2.2 6.9 -4.5 10.4 -5.3 19.7 -12.8 26.2 -21.3 l5 -6.5 -0.7 6.5 c-0.8 7 -2.1 13.3 -3.6 16.5 -0.5 1.1 -1.1 3.8 -1.4 6 -1 8.2 -3.5 17.2 -6.5 23.3 -1.7 3.4 -3.1 7 -3.1 8 0 0.9 -0.6 2.7 -1.3 3.8 -0.6 1.2 -2.3 4.1 -3.6 6.5 -1.3 2.4 -3 4.8 -3.7 5.2 -0.8 0.4 -1.4 1.3 -1.4 1.9 0 0.5 -2.2 3.8 -4.8 7.2 -4.4 5.5 -4.8 6.5 -4.4 10.4 0.2 2.3 0 4.2 -0.4 4.1 -0.5 0 -2.2 -1.6 -3.8 -3.5z"/>
  <path d="M919 465 c-1.2 -0.8 -1.1 -1 0.5 -1 1.4 0 1.6 -0.3 0.7 -0.8 -1.6 -1.1 -0.5 -4.2 1.5 -4.2 1.2 0 1.4 0.7 0.8 2.8 -0.9 3.6 -1.7 4.3 -3.5 3.2z"/>
  <path d="M921 456 c0 -0.5 0.7 -1 1.5 -1 0.8 0 1.5 0.5 1.5 1 0 0.6 -0.7 1 -1.5 1 -0.8 0 -1.5 -0.4 -1.5 -1z"/>
  <path d="M922.4 451 c0.3 -1.8 0.6 -4.1 0.6 -5.1 0 -2.1 2.6 -2.6 3.2 -0.6 0.9 2.8 -0.7 8.2 -2.6 8.5 -1.6 0.4 -1.8 0 -1.2 -2.8z"/>
  <path d="M924 437 c0 -3.8 0.4 -5 1.5 -5 1.1 0 1.5 1.2 1.5 5 0 3.8 -0.4 5 -1.5 5 -1.1 0 -1.5 -1.2 -1.5 -5z"/>
  <path d="M923 426 c0 -1.1 0.7 -2 1.5 -2 0.8 0 1.5 0.9 1.5 2 0 1.1 -0.7 2 -1.5 2 -0.8 0 -1.5 -0.9 -1.5 -2z"/>
  <path d="M923.8 421.3 c-2.1 -0.5 -2.4 -3.3 -0.4 -3.3 0.7 0 1.6 0.9 1.9 2 0.3 1.1 0.4 1.9 0.4 1.9 -0.1 -0.1 -1 -0.3 -1.9 -0.6z"/>
  <path d="M353.6 395.4 c-0.3 -0.8 -0.1 -7.9 0.4 -15.6 0.6 -7.8 0.7 -16.3 0.4 -19 l-0.7 -4.8 3 0 c3.9 0 9.2 3.6 11.7 8 2.8 4.6 2.8 15 0.2 20 -2.3 4.4 -7.3 9.7 -10.8 11.6 -3.4 1.7 -3.5 1.7 -4.2 -0.2z"/>
  <path d="M927.7 373.2 c-3.7 -3.8 -4.7 -6.2 -2.6 -6.2 0.7 0 0.9 -1 0.5 -2.5 -0.5 -1.8 -0.2 -2.5 0.9 -2.5 0.9 0 2.2 2.4 3.6 7.1 1.2 3.8 1.9 7.2 1.7 7.4 -0.2 0.3 -2.1 -1.2 -4.1 -3.3z"/>
  <path d="M389.3 366.2 c-0.4 -14.4 -7.6 -23.3 -21.2 -26.2 -6 -1.3 -6.1 -1.3 -6.1 -4.6 0 -1.9 0.4 -3.4 0.9 -3.4 0.5 0 1.5 -2.6 2.1 -5.7 0.6 -3.2 1.6 -7.1 2.2 -8.8 0.5 -1.6 1.5 -4.9 2.1 -7.1 0.9 -4 1.3 -4.3 8.1 -7 7.3 -2.8 18 -8 27.6 -13.4 5 -2.9 5.2 -2.9 2.5 -0.6 -1.6 1.4 -3.3 2.6 -3.6 2.6 -0.3 0 -1.4 2.8 -2.4 6.3 -1 3.4 -2.2 6.7 -2.6 7.2 -0.4 0.6 -1.7 4.4 -2.9 8.5 -1.9 6.7 -3.1 12.6 -5.9 29.5 -0.5 2.8 -0.5 7.9 0 11.5 1.1 8.2 1.1 19 0.2 19 -0.5 0 -0.9 -3.5 -1 -7.8z"/>
  <path d="M923.1 356.9 c-0.7 -2.3 -1.5 -4.8 -1.8 -5.6 -0.4 -1 -0.1 -1.4 1.2 -1.2 1.5 0.4 4.4 6.5 4.5 9.7 0 2.9 -2.8 0.8 -3.9 -2.9z"/>
  <path d="M918.3 342.5 c-0.9 -2.7 -0.8 -3.5 0.1 -3.5 1.2 0 3.6 4 3.6 6 0 2.5 -2.8 0.6 -3.7 -2.5z"/>
  <path d="M913.7 330.9 c-2.7 -7.1 -2.9 -9.6 -0.3 -6.8 1.3 1.4 5.6 11.4 5.6 13 0 0.5 -0.6 0.9 -1.3 0.9 -0.6 0 -2.5 -3.2 -4 -7.1z"/>
  <path d="M906.8 315 c-3.4 -7.7 -1.2 -8.3 2.6 -0.7 3 6.2 3.1 6.7 1.3 6.7 -0.7 0 -2.4 -2.7 -3.9 -6z"/>
  <path d="M894.7 292.2 c-0.2 -0.4 -0.4 -2.5 -0.5 -4.7 l-0.2 -4 1.9 3.5 c1.1 1.9 2 3.8 2.1 4.1 0 1 -2.9 1.9 -3.3 1.1z"/>
  <path d="M411 236.6 c0 -3.8 0.6 -6 2 -7.9 1.1 -1.4 2 -3.1 2 -3.9 0 -0.7 0.9 -2.4 2 -3.8 1.1 -1.4 2 -2.9 2 -3.4 0 -0.4 1.2 -2.2 2.6 -4 1.4 -1.7 4 -5.3 5.8 -8.1 2.5 -4 3.7 -5.1 6.1 -5.3 2.4 -0.2 3.4 0.3 4.8 2.7 4.8 8.2 -1.6 22.7 -15.3 34 -4.3 3.6 -7 5.1 -9.1 5.1 -2.8 0 -2.9 -0.1 -2.9 -5.4z"/>
  <path d="M798.7 187.3 c-1.2 -1.2 -0.7 -2.2 0.8 -1.7 0.8 0.4 1.5 1 1.5 1.5 0 1.1 -1.4 1.2 -2.3 0.2z"/>
  <path d="M487.7 180.5 c-2.4 -3.4 -8 -6.1 -15.2 -7.4 -3.2 -0.6 -6 -1.1 -6.2 -1.1 -1.3 0 0.1 -3 1.6 -3.5 1 -0.3 2.5 -2 3.2 -3.7 0.7 -1.7 4.1 -5.9 7.6 -9.4 6.2 -6.2 6.6 -6.4 20.1 -10.8 34.4 -11.2 63.8 -16.2 100.7 -17 l18 -0.4 -16.8 1.2 c-9.3 0.6 -16.7 1.3 -16.4 1.6 0.3 0.3 -1.9 0.6 -4.9 0.7 -6.3 0.1 -18.5 3.8 -19.7 5.9 -0.4 0.8 -1.4 1.4 -2.1 1.4 -0.8 0 -1.6 0.7 -2 1.5 -0.3 0.8 -1.1 1.5 -1.9 1.5 -0.7 0 -3.2 0.9 -5.5 2 -2.2 1.1 -5.4 2 -6.9 2 -1.5 0 -3.9 0.7 -5.3 1.5 -1.4 0.8 -3.6 1.9 -4.9 2.5 -1.3 0.6 -3.7 2.2 -5.3 3.5 -1.6 1.4 -3.4 2.5 -3.9 2.5 -1.5 0 -19.7 12.6 -26 18.1 -4.8 4.2 -6 5.7 -5.6 7.6 0.5 3 -0.3 2.9 -2.6 -0.2z"/>
  <path d="M540.2 154.4 c-0.6 -0.6 0.2 -2.4 2.4 -5 1.9 -2.1 3.4 -3.6 3.4 -3.1 0 0.4 0.9 -0.2 2 -1.3 1.1 -1.1 2.5 -2 3 -2 0.6 0 1 0.9 1 2 0 1.1 -0.4 2 -0.9 2 -0.4 0 -2.9 1.9 -5.4 4.3 -3 2.8 -4.8 3.9 -5.5 3.1z"/>
  <path d="M560 141.5 c-1 -1.3 -0.9 -1.5 0.9 -1.5 1.2 0 2.1 0.6 2.1 1.5 0 0.8 -0.4 1.5 -0.9 1.5 -0.5 0 -1.4 -0.7 -2.1 -1.5z"/>
  <path d="M565.2 141 c-1 -1.7 -1 -2 0.2 -2 1.9 0 3.1 1.9 1.9 3.1 -0.5 0.5 -1.4 0 -2.1 -1.1z"/>
  <path d="M571 139.5 c-1 -1.3 -0.9 -1.5 0.9 -1.5 1.2 0 2.1 0.6 2.1 1.5 0 0.8 -0.4 1.5 -0.9 1.5 -0.5 0 -1.4 -0.7 -2.1 -1.5z"/>
  <path d="M578.7 139.4 c-0.4 -0.4 -0.4 -1 -0.1 -1.5 0.6 -1 3.4 0 3.4 1.2 0 1 -2.4 1.2 -3.3 0.3z"/>
  <path d="M587.5 138 c-0.6 -1 0 -1.2 3 -1.2 5.9 0 8.5 0.3 8.5 1.2 0 0.6 -2.4 1 -5.4 1 -3 0 -5.8 -0.4 -6.1 -1z"/>
  <path d="M600 138 c0 -0.5 0.7 -1 1.5 -1 0.8 0 1.5 0.5 1.5 1 0 0.6 -0.7 1 -1.5 1 -0.8 0 -1.5 -0.4 -1.5 -1z"/>
  <path d="M652.9 130.1 c1.2 -0.8 5.1 -0.4 5.1 0.5 0 0.2 -1.5 0.4 -3.2 0.4 -2.3 0 -2.9 -0.3 -1.9 -0.9z"/>
  <path d="M644.3 129.3 c0.9 -0.2 2.5 -0.2 3.5 0 0.9 0.3 0.1 0.5 -1.8 0.5 -1.9 0 -2.7 -0.2 -1.7 -0.5z"/>
  <path d="M633.8 128.3 c1.2 -0.2 3.2 -0.2 4.5 0 1.2 0.2 0.2 0.4 -2.3 0.4 -2.5 0 -3.5 -0.2 -2.2 -0.4z"/>
 </g>
 <g fill="#006abf">
  <path d="M581.8 787 c-30.4 -3.5 -50 -9.7 -65.6 -20.7 -6.4 -4.6 -9.2 -8.4 -9.2 -12.7 0 -2.2 0.4 -2.5 2.8 -2.1 8.4 1.5 23.9 2.5 37.1 2.5 25.1 0 49.3 -4.1 71.4 -12.2 11.8 -4.3 13.1 -4.3 22.3 -0.3 10.7 4.7 18.2 14.3 19.1 24.2 0.4 5.4 0.2 6.1 -2.6 9.5 -3.8 4.5 -11.3 8.2 -20.6 10.3 -8.3 1.9 -42.8 2.8 -54.7 1.5z"/>
  <path d="M728.9 765.8 c-0.9 -0.7 -5.4 -6 -9.9 -11.8 -12.9 -16.4 -15.6 -19.3 -22.4 -24.8 -7.9 -6.5 -18.1 -11.3 -25.4 -12.1 l-5.6 -0.6 4 -3 c6.5 -4.9 19.2 -17.5 24.6 -24.3 3.4 -4.2 5.3 -5.9 5.8 -5.1 0.9 1.4 7.2 0.6 17.5 -2.2 3.8 -1 8.2 -1.9 9.7 -1.9 2.3 0 2.8 -0.4 2.8 -2.5 0 -1.6 0.6 -2.5 1.5 -2.5 1.3 0 1.5 2.4 1.5 15.4 0 23.3 3.3 31.6 15 37 3.9 1.8 6.3 2.1 19 2 16.6 -0.1 26.7 -2.3 43.1 -9.4 5.1 -2.1 9.4 -3.8 9.5 -3.7 0.5 0.5 -25 19.1 -37.5 27.5 -17.5 11.6 -39.3 22.4 -46.2 22.9 -3.6 0.3 -6 0 -7 -0.9z"/>
  <path d="M775.6 704.6 c-3.9 -1.5 -9.9 -6.5 -11.8 -10 -1.8 -3.4 -2.7 -13.6 -1.7 -19.4 1.1 -5.8 3.8 -13.6 4.6 -12.9 0.2 0.2 -0.1 1.7 -0.7 3.2 l-1 2.7 3.1 -2.6 c1.7 -1.4 3.9 -2.6 4.9 -2.6 2.7 0 13.2 -4.1 15.5 -6.1 1.1 -0.9 3 -2 4.3 -2.4 1.2 -0.3 2.2 -1.1 2.2 -1.6 0 -0.5 0.5 -0.9 1.1 -0.9 0.6 0 3 -1.6 5.3 -3.5 2.4 -1.9 4.8 -3.5 5.5 -3.5 1 0 6.3 -4.2 17.1 -13.4 1.4 -1.1 3 -2.3 3.7 -2.6 0.6 -0.3 3.6 -2.6 6.6 -5.2 5.7 -4.9 7.8 -8.8 4.9 -8.8 -1.1 0 -1.3 -0.3 -0.5 -1.1 1.7 -1.7 10.1 2.9 13.3 7.3 7.8 10.7 5 27.9 -7.4 45.2 -5.8 8.2 -20.4 22 -29.5 28 -14.1 9.4 -30.4 13.6 -39.5 10.2z"/>
  <path d="M494 649.5 c0 -0.9 0.9 -1.5 2.1 -1.5 1.8 0 1.9 0.2 0.5 1.5 -0.8 0.8 -1.7 1.5 -2 1.5 -0.3 0 -0.6 -0.7 -0.6 -1.5z"/>
  <path d="M490.2 648.8 c0.6 -1.8 2.8 -2.1 2.8 -0.4 0 0.9 -0.7 1.6 -1.6 1.6 -0.9 0 -1.4 -0.5 -1.2 -1.2z"/>
  <path d="M485 648.1 c0 -0.5 -0.9 -0.7 -2 -0.4 -1.2 0.3 -2 0 -2 -0.6 0 -0.7 -0.5 -0.9 -1.1 -0.6 -1.6 1.1 -23.2 -3.6 -25 -5.4 -3 -2.9 -6.9 -14.7 -7.6 -22.7 l-0.6 -7.8 7.4 7.1 c7.7 7.4 15 13.2 19 15.3 1.3 0.7 4.1 2.8 6.2 4.6 2 1.9 4 3.4 4.5 3.4 0.4 0 2 1.1 3.5 2.6 2.4 2.2 2.5 2.7 1.3 4 -1.6 1.6 -3.6 1.9 -3.6 0.5z"/>
  <path d="M326.1 636.6 c-10.5 -18.4 -16.3 -38.9 -14.7 -51.8 1.7 -13.6 12.4 -19.9 31.1 -18.4 20.5 1.7 39.9 9.4 52 20.8 7.6 7 10.5 12.5 13.9 25.6 3.4 12.9 5.1 17.6 7.5 21 l1.9 2.7 -19.2 -0.3 c-24.9 -0.5 -39.4 1.2 -66.1 7.5 -1.7 0.4 -2.8 -0.9 -6.4 -7.1z"/>
  <path d="M906.1 602.5 c-0.1 -4.1 -4 -13.7 -6 -14.9 -2 -1.3 -1.1 -3.3 4.9 -10.9 3.3 -4.1 6 -8 6 -8.5 0 -0.6 0.6 -1.5 1.4 -1.9 0.7 -0.4 2.4 -2.8 3.7 -5.2 1.3 -2.4 3 -5.3 3.6 -6.5 0.7 -1.1 1.3 -2.9 1.3 -3.8 0 -1 1.4 -4.6 3.1 -8 3.1 -6.3 5.6 -15.2 6.6 -23.8 0.3 -2.5 0.9 -4.9 1.3 -5.5 0.5 -0.5 1.1 -2.7 1.5 -4.7 0.5 -2.4 1.3 -3.8 2.3 -3.8 6.1 0 -11.2 63.5 -25.3 92.5 -4.3 8.9 -4.3 9 -4.4 5z"/>
  <path d="M289.3 562.9 c-25.7 -76.7 -22.3 -160.9 9.7 -237 5.3 -12.6 15.2 -32.6 19.2 -38.9 l2.3 -3.5 0.6 8.6 c0.7 9.7 2.6 13.6 8.2 16.7 7.3 4 31.7 1.3 47.8 -5.2 3.3 -1.3 5.9 -2.2 5.9 -2 0 0.1 -2.3 1.5 -5 3 -4 2.2 -5 3.2 -5 5.3 -0.1 1.4 -0.8 4.4 -1.6 6.6 -0.9 2.2 -1.7 4.9 -1.8 6 -0.6 4.7 -2.9 12.5 -3.7 12.5 -0.6 0 -0.4 0.6 0.3 1.4 0.7 0.8 1.7 1.3 2.2 1.3 0.5 -0.1 1 0.3 1.2 0.9 0.3 0.7 -3.4 0.9 -11.4 0.6 -13.9 -0.5 -20.6 1 -27.4 6.1 -6.3 4.7 -8.6 10.2 -10.3 24.3 -0.8 6.5 -2.1 17.6 -3 24.6 -2.1 17.7 -4.6 24.3 -16.4 43.7 -8.8 14.6 -12.7 28.9 -10.2 37.9 4 14.3 17.9 9.5 27.5 -9.5 6.8 -13.7 8.9 -25.3 10.7 -60.8 1.5 -31.2 3.2 -38.8 10.3 -45.4 3.3 -3.1 10.9 -5 16.6 -4.2 3.9 0.6 4.2 0.8 2.6 1.7 -1 0.6 -1.5 1.4 -1 1.7 0.5 0.3 0.5 7.3 -0.1 16.4 l-1 15.8 2.3 0.3 c1.2 0.2 2.2 0.7 2.2 1.2 0 1 -6.4 4.2 -11 5.5 -4.3 1.3 -7 4.7 -9.2 11.8 -2.7 9 -2.3 23.4 0.8 28.7 3.5 6.1 8.6 5.4 17 -2.2 3.2 -2.9 4.9 -4 3.6 -2.4 -1.8 2.4 -2.1 3.7 -1.7 8.5 0.3 3.1 0.9 7.4 1.5 9.6 0.5 2.2 1.2 5.4 1.6 7 0.4 1.7 1 3.5 1.4 4 0.4 0.6 1.3 3.4 2 6.4 0.7 2.9 2.9 9.2 5 14 2.1 4.7 4.1 10.1 4.5 12 1 4.5 4.9 13.3 15.2 33.8 4.8 9.5 8.4 17.5 8.1 17.8 -0.2 0.3 -4.7 -1.6 -9.9 -4.1 -5.2 -2.5 -14.8 -6.5 -21.4 -8.7 -11.9 -4.1 -12.1 -4.1 -26.5 -4.2 -12.7 0 -15.2 0.3 -20.2 2.3 -14.6 5.9 -23.9 18.2 -27.2 36.1 l-1.2 6.4 -4.1 -12.4z m43.9 -51.9 c6.6 -7 5.5 -21.9 -1.8 -25.2 -5.2 -2.4 -11.8 6.3 -11.9 15.7 -0.1 12 6.8 16.8 13.7 9.5z m32.6 -0.2 c4.8 -5.3 5.1 -12.2 0.7 -18.9 -1.3 -2 -3.7 -4.2 -5.4 -4.9 -2.6 -1.1 -3.5 -1 -5.7 0.5 -6.9 4.5 -7.1 19.1 -0.3 23.9 3.4 2.3 8.1 2 10.7 -0.6z"/>
  <path d="M407.1 552.6 c-1.6 -1.9 -1.1 -2.9 0.8 -1.7 0.7 0.5 1.2 1.4 0.9 2.1 -0.3 0.9 -0.8 0.7 -1.7 -0.4z"/>
  <path d="M402.7 549.9 c-0.9 -0.6 -1.7 -1.7 -1.7 -2.5 0 -1.1 0.5 -1 2.2 0.6 2.4 2.2 2.2 3.4 -0.5 1.9z"/>
  <path d="M931 504.3 c1.3 -1.8 2.6 -3 2.9 -2.8 0.3 0.3 -0.8 1.8 -2.3 3.3 l-2.9 2.7 2.3 -3.2z"/>
  <path d="M935 501.5 c0 -0.8 0.8 -2.8 1.9 -4.6 l1.9 -3.1 -0.3 3.4 c-0.2 1.8 -0.3 3.9 -0.4 4.6 -0.1 1.7 -3.1 1.5 -3.1 -0.3z"/>
  <path d="M361 391 c-1.2 -0.8 -1.2 -1 0.3 -1.6 2.1 -0.8 3.5 0.2 2.1 1.6 -0.5 0.5 -1.5 0.6 -2.4 0z"/>
  <path d="M362.6 359.5 c-1.1 -0.8 -1.5 -1.5 -1 -1.5 0.6 0 1.9 0.7 3 1.5 1 0.8 1.5 1.4 0.9 1.4 -0.5 0 -1.9 -0.6 -2.9 -1.4z"/>
  <path d="M360.4 264.1 c-5 -2.2 -7 -10.3 -4.2 -16.8 7.3 -16.6 31.8 -38.6 52.6 -47.4 9.5 -4 19.7 -4.6 24.8 -1.5 3.5 2.1 6.4 6.4 6.4 9.5 0 3.3 -2.5 2.5 -3.5 -1.1 -0.6 -1.8 -1.4 -3.3 -2 -3.3 -0.5 0 -2.4 2.3 -4.1 5 -1.8 2.8 -4.4 6.4 -5.8 8.1 -1.4 1.8 -2.6 3.6 -2.6 4 0 0.5 -0.9 2 -2 3.4 -1.1 1.4 -2 3.1 -2 3.8 0 0.8 -0.9 2.5 -2 3.9 -2.6 3.3 -2.7 7.5 -0.2 6.6 0.9 -0.4 2.6 -1.5 3.6 -2.5 2.3 -2.1 4.6 -2.4 4.6 -0.5 0 1.7 -15.7 13.1 -25.9 18.9 -13.7 7.7 -31.8 12.4 -37.7 9.9z"/>
  <path d="M435 220 c-1.2 -0.8 -1.1 -1 0.5 -1 1.7 0 1.7 -0.2 0.5 -1 -1.3 -0.8 -1.2 -1 0.3 -1 1.8 0 2.1 0.8 0.9 2.7 -0.5 0.8 -1.3 0.9 -2.2 0.3z"/>
  <path d="M473.8 173.3 c-1 -0.2 -1.8 -0.8 -1.8 -1.1 0 -0.4 -7.6 -0.7 -17 -0.7 -9.3 0 -17 -0.1 -17 -0.2 0 -0.7 29.3 -14.8 38.1 -18.3 12.5 -5 27.9 -10.3 28.5 -9.8 0.2 0.2 -2 1.3 -4.9 2.3 -2.8 1 -5.4 2.1 -5.7 2.5 -0.3 0.4 -2.7 2.3 -5.3 4.3 -8.5 6.4 -17.9 17.7 -14.8 17.7 0.5 0 1.1 0.9 1.4 2 0.3 1.1 0.4 1.9 0.4 1.9 -0.1 -0.1 -1 -0.3 -1.9 -0.6z"/>
 </g>
</svg>